<svg xmlns="http://www.w3.org/2000/svg" xmlns:xlink="http://www.w3.org/1999/xlink" xmlns:inkscape="http://www.inkscape.org/namespaces/inkscape" version="1.1" width="170.0788" height="170.0788" viewBox="0 0 170.0788 170.0788">
<defs>
<clipPath id="clip_1">
<path transform="matrix(2,0,0,-2,0,170.0788)" d="M0 85.039H85.039V0H0Z"/>
</clipPath>
</defs>
<g inkscape:groupmode="layer" inkscape:label="&#x30EC;&#x30A4;&#x30E4;&#x30FC; 1">
<g clip-path="url(#clip_1)">
<path transform="matrix(2,0,0,-2,66.501,137.09059)" d="M0 0C-2.671 3.073-4.799 6.606-6.217 10.426-6.897 12.26-7.433 14.159-7.778 16.084-8.013 17.396-7.994 18.36-7.326 19.545-6.839 20.409-6.276 21.234-5.758 22.079-1.507 29.012 2.048 36.43 1.283 44.772 .89 49.065-.273 53.237-.792 57.511-.891 58.321-1.232 59.551-1.013 60.343-.723 61.395 1.258 60.05 1.834 59.739 3.542 58.819 5.178 57.76 6.711 56.57 13.383 51.39 17.201 44.174 20.191 36.436 22.03 31.678 23.789 26.888 25.583 22.112 27.321 17.485 29.94 12.328 28.93 7.259 28.743 6.316 30.188 5.913 30.377 6.86 31.301 11.5 29.51 15.906 27.905 20.179 26.107 24.966 24.313 29.754 22.511 34.54 19.373 42.87 15.77 50.936 8.808 56.792 7.25 58.103 5.588 59.294 3.835 60.332 2.525 61.108 .512 62.603-1.115 62.255-2.959 61.861-2.508 59.555-2.369 58.198-2.136 55.909-1.703 53.649-1.27 51.392-.338 46.539 .427 41.72-.688 36.827-1.706 32.36-3.824 28.247-6.148 24.334-7.248 22.481-9.056 20.45-9.406 18.274-9.755 16.11-8.802 13.452-8.144 11.416-6.658 6.813-4.231 2.586-1.061-1.061-.426-1.791 .631-.726 0 0" fill="#333939"/>
<path transform="matrix(2,0,0,-2,65.9492,15.395996)" d="M0 0C8.347-2.718 14.672-8.537 19.37-15.815 21.638-19.33 23.568-23.048 25.46-26.774 27.507-30.806 29.569-34.852 31.127-39.104 32.903-43.947 33.957-49.018 33.416-54.187 33.316-55.146 34.817-55.139 34.916-54.187 35.909-44.7 31.693-35.794 27.531-27.549 23.62-19.801 19.588-11.748 13.054-5.838 9.4-2.534 5.079-.078 .399 1.446-.521 1.746-.915 .298 0 0" fill="#333939"/>
<path transform="matrix(2,0,0,-2,66.9874,141.0582)" d="M0 0C2.018 1.954 4.986 2.678 7.568 3.588 10.454 4.605 13.357 5.58 16.311 6.378 19.247 7.171 22.238 7.797 25.27 8.071 26.39 8.172 34.611 8.852 32.964 6.015 32.479 5.178 33.775 4.422 34.259 5.258 34.862 6.296 34.679 7.524 33.879 8.414 32.938 9.46 31.482 9.638 30.155 9.702 26.451 9.88 22.709 9.392 19.096 8.605 15.343 7.787 11.681 6.609 8.058 5.346 4.961 4.267 1.36 3.404-1.061 1.061-1.756 .388-.694-.672 0 0" fill="#333939"/>
<path transform="matrix(2,0,0,-2,66.5586,138.6602)" d="M0 0C-1.894-2.34-1.71-5.923 .78-7.789 3.942-10.16 8.022-8.771 11.329-7.54 19.434-4.523 27.207-.664 34.522 3.948 35.337 4.462 34.585 5.76 33.765 5.243 27.729 1.438 21.382-1.873 14.781-4.586 13.223-5.226 11.652-5.837 10.068-6.411 8.309-7.047 6.465-7.696 4.565-7.579 3.058-7.486 1.446-6.843 .681-5.466-.085-4.085 .07-2.285 1.061-1.061 1.663-.317 .608 .751 0 0" fill="#333939"/>
<path transform="matrix(2,0,0,-2,63.7158,101.1232)" d="M0 0C4.135 5.268 8.199 10.78 9.447 17.513 10.869 25.185 8.589 32.764 6.24 40.007 4.569 39.034 2.898 38.061 1.226 37.088 14.936 26.003 19.12 7.982 24.759-7.946 26.039-11.56 31.838-10.004 30.545-6.35 24.572 10.522 20 29.581 5.469 41.33 3.342 43.05-.558 41.534 .455 38.412 2.408 32.388 4.573 26.033 3.693 19.622 2.881 13.716-.648 8.823-4.243 4.243-6.601 1.239-2.383-3.036 0 0" fill="#333939"/>
<path transform="matrix(2,0,0,-2,76.3584,42.093599)" d="M0 0C.328-10.949 6.166-21.038 10.527-30.834 12.094-34.355 17.266-31.306 15.708-27.806 11.801-19.029 6.294-9.803 6 0 5.884 3.852-.116 3.869 0 0" fill="#333939"/>
<path transform="matrix(2,0,0,-2,82.316,41.782594)" d="M0 0C2.641-7.271 4.887-14.651 6.742-22.161 7.668-25.908 13.456-24.321 12.528-20.566 10.672-13.056 8.427-5.676 5.786 1.595 4.478 5.196-1.323 3.641 0 0" fill="#333939"/>
<path transform="matrix(2,0,0,-2,66.2528,35.163194)" d="M0 0C1.11-5.392 1.994-10.619 .634-16.06-.556-20.823-2.984-25.171-5.306-29.454-7.147-32.849-1.969-35.881-.125-32.482 2.704-27.264 5.614-21.874 6.8-16 7.998-10.067 6.988-4.245 5.786 1.595 5.008 5.374-.777 3.775 0 0" fill="#333939"/>
<path transform="matrix(2,0,0,-2,68.7192,61.856798)" d="M0 0C-1.1-3.416-2.385-6.742-3.979-9.961-5.296-12.62-7.347-15.205-7.845-18.169-8.479-21.946-2.699-23.569-2.059-19.764-1.536-16.651 .992-13.566 2.297-10.677 3.635-7.715 4.79-4.687 5.786-1.595 6.972 2.089 1.181 3.667 0 0" fill="#333939"/>
<path transform="matrix(2,0,0,-2,82.1774,36.259798)" d="M0 0C2.827-6.326 5.886-12.531 9.182-18.625 11.02-22.022 16.202-18.997 14.363-15.597 11.067-9.503 8.007-3.297 5.181 3.028 3.608 6.547-1.564 3.499 0 0" fill="#333939"/>
<path transform="matrix(2,0,0,-2,87.6764,40.35759)" d="M0 0C7.925-11.899 12.416-24.421 17.289-37.721 17.813-39.151 19.352-40.404 20.979-39.817 29.346-36.798 20.078-22.679 17.388-18.34 15.357-15.065 10.164-18.074 12.207-21.368 13.568-23.563 14.85-25.795 15.916-28.151 16.518-29.482 17.061-30.836 17.555-32.211 18.169-33.92 17.666-34.651 19.384-34.031 20.614-34.729 21.844-35.428 23.074-36.126 18.025-22.341 13.398-9.311 5.181 3.028 3.051 6.227-2.148 3.226 0 0" fill="#333939"/>
<path transform="matrix(2,0,0,-2,122.8918,110.50079)" d="M0 0-.058-4.384C1.207-3.419 2.473-2.455 3.739-1.491-4.171 .394-12.633 1.494-19.5-3.798-22.461-6.081-19.768-11.177-16.472-8.979-12.598-6.396-8.584-4.16-4.35-2.224-1.062-.72-3.546 3.833-6.662 3.26-9.974 2.651-13.286 2.042-16.598 1.432-15.625-.239-14.652-1.91-13.679-3.582-11.064-.942-8.206 .981-4.813 2.489-5.822 4.216-6.832 5.943-7.841 7.67-10.331 6.431-12.821 5.191-15.31 3.952-14.098 2.381-12.887 .811-11.675-.76-10.101 1.024-8.528 2.809-6.955 4.593-5.188 6.597-6.857 10.846-9.874 9.607-12.331 8.599-14.788 7.59-17.246 6.581-16.016 5.351-14.786 4.121-13.555 2.891-13.142 5.557-12.335 7.641-10.514 9.71-7.955 12.615-11.847 16.505-14.757 13.952-16.591 12.342-18.426 10.732-20.26 9.122-18.589 8.149-16.918 7.176-15.246 6.203-14.752 9.069-14.006 11.753-12.952 14.459-11.79 17.441-15.951 19.229-17.966 17.378-19.024 16.406-20.083 15.434-21.141 14.462L-16.127 11.543C-15.363 13.526-14.598 15.508-13.834 17.49-12.726 20.364-16.875 22.45-18.848 20.409-19.881 19.341-20.914 18.273-21.947 17.204-20.24 16.497-18.533 15.79-16.826 15.083-16.65 16.836-16.03 18.384-14.964 19.728-12.824 23.014-17.921 25.825-20.145 22.756-23.084 18.701-26.856 16.515-28.802 11.624-30.575 7.17-31.101 2.369-31.586-2.364-31.884-5.265-27.196-6.543-25.996-3.879-23.312 2.075-20.629 8.029-17.946 13.983-19.809 14.488-21.673 14.992-23.536 15.497-23.986 10.315-25.14 5.402-26.909 .519L-21.123-1.076C-20.189 1.998-18.917 4.696-17.199 7.39-19.027 8.161-20.855 8.931-22.683 9.702-23.215 6.866-24.039 4.286-25.357 1.714-27.111-1.711-21.989-4.741-20.176-1.315-19.352 .243-18.446 1.486-17.193 2.725L-22.314 4.847C-22.494 3.331-23.079 2.021-24.067 .916-26.048-1.823-21.541-5.332-19.356-2.72-18.925-2.347-18.494-1.974-18.063-1.601-19.568-.737-21.073 .126-22.577 .99-22.574-.451-22.844-1.833-23.386-3.156-24.123-5.439-21.818-7.324-19.696-6.846-19.351-6.769-19.006-6.691-18.661-6.614-19.927-5.649-21.193-4.685-22.459-3.721-22.305-2.579-26.124 .891-26.838 1.904-28.189 3.822-29.391 5.824-30.546 7.864-31.858 10.18-35.274 9.551-36.029 7.147-38.054 .704-34.827-8.736-29.048-12.543-26.002-14.549-22.113-12.356-19.001-11.354L-3.874-6.483C-.213-5.304-1.779 .491-5.469-.697-11.134-2.521-16.871-4.207-22.487-6.178-22.968-6.346-25.317-7.593-25.723-7.499-26.479-7.324-27.95-4.594-28.422-3.837-30.294-.835-31.333 2.085-30.243 5.552L-35.727 4.836C-33.293 .538-29.402-7.292-24.536-9.316-20.298-11.078-16.982-7.616-16.459-3.721-16.184-1.672-18.586-.452-20.256-.828-20.601-.906-20.946-.983-21.291-1.061-20.061-2.291-18.831-3.521-17.601-4.751-16.975-2.81-16.688-1.035-16.577 .99-16.451 3.315-19.205 4.657-21.092 3.58-22.3 2.891-22.705 2.59-23.598 1.523-22.028 .311-20.457-.901-18.886-2.113-17.288 .098-16.665 2.166-16.314 4.847-15.96 7.552-19.754 8.629-21.435 6.968-23.051 5.371-24.296 3.718-25.357 1.714-23.63 .704-21.903-.305-20.176-1.315-18.621 1.722-17.528 4.745-16.897 8.107-16.281 11.39-20.484 13.393-22.38 10.418-24.375 7.29-25.832 4.062-26.909 .519-28.046-3.22-22.422-4.659-21.123-1.076-19.169 4.317-18.031 9.789-17.536 15.497-17.286 18.387-21.917 19.696-23.127 17.011-25.81 11.057-28.493 5.104-31.176-.85-29.313-1.355-27.449-1.86-25.586-2.364-25.138 2.001-24.676 6.64-22.718 10.641-20.892 14.372-17.349 16.438-14.964 19.728-16.691 20.737-18.418 21.747-20.145 22.756-21.759 20.279-22.447 17.995-22.826 15.083-23.172 12.419-19.367 11.242-17.704 12.962-16.671 14.03-15.638 15.098-14.605 16.167L-19.619 19.085C-20.384 17.103-21.148 15.121-21.913 13.138-23.063 10.155-18.918 8.364-16.899 10.219L-13.724 13.135-18.738 16.054C-19.793 13.345-20.539 10.661-21.032 7.798-21.54 4.849-18.365 2.819-16.018 4.88-14.183 6.49-12.349 8.1-10.514 9.71-11.928 11.124-13.342 12.538-14.757 13.952-17.226 11.148-18.764 8.205-19.341 4.486-19.644 2.532-18.018-.176-15.651 .795-13.193 1.804-10.736 2.813-8.279 3.822L-11.197 8.836C-12.771 7.052-14.344 5.267-15.917 3.483-18.191 .905-15.371-2.767-12.282-1.229-9.792 .01-7.303 1.25-4.813 2.489-1.31 4.233-4.379 9.209-7.841 7.67-11.698 5.956-14.955 3.656-17.922 .661-20.155-1.594-17.833-4.874-15.003-4.353L-5.067-2.526C-5.837-.698-6.608 1.13-7.378 2.957-11.613 1.021-15.626-1.215-19.5-3.798-18.49-5.525-17.481-7.252-16.472-8.979-10.865-4.657-4.315-5.738 2.144-7.276 4.05-7.73 5.915-6.382 5.942-4.384L6 0C6.051 3.862 .051 3.864 0 0" fill="#333939"/>
<path transform="matrix(2,0,0,-2,75.2062,145.2928)" d="M0 0C4.018 2.123 8.703 2.91 13.068 4.051 17.741 5.273 22.414 6.494 27.087 7.716 30.819 8.692 29.236 14.481 25.491 13.502 16.193 11.071 5.518 9.696-3.028 5.181-6.444 3.376-3.415-1.804 0 0" fill="#333939"/>
<path transform="matrix(2,0,0,-2,67.322,143.7602)" d="M0 0C-.343-5.818 5.579-7.152 10.034-5.427 17.875-2.39 25.441 2.086 32.854 6.024 36.266 7.837 33.238 13.018 29.826 11.205 26.031 9.189 22.22 7.204 18.382 5.273 16.737 4.445 15.088 3.625 13.435 2.813 12.929 2.565 5.964-.604 6 0 6.227 3.857 .226 3.844 0 0" fill="#333939"/>
<path transform="matrix(2,0,0,-2,82.4716,147.9998)" d="M0 0C2.721 .667 5.333 1.67 7.833 2.933 9.279 3.663 9.692 5.7 8.91 7.037 8.049 8.508 6.256 8.847 4.805 8.114 2.757 7.079 .633 6.332-1.595 5.786-5.343 4.867-3.756-.921 0 0" fill="#333939"/>
<path transform="matrix(2,0,0,-2,78.6936,145.73459)" d="M0 0V1.021C0 1.79-.335 2.599-.879 3.143-1.15 3.435-1.472 3.642-1.844 3.763-2.202 3.951-2.587 4.037-3 4.021-3.776 3.987-4.581 3.732-5.121 3.143-5.66 2.556-6 1.834-6 1.021V0C-6-.769-5.665-1.577-5.121-2.121-4.85-2.414-4.528-2.621-4.156-2.742-3.798-2.929-3.413-3.016-3-3-2.224-2.965-1.419-2.71-.879-2.121-.34-1.534 0-.813 0 0" fill="#333939"/>
<path transform="matrix(2,0,0,-2,66.919,138.7432)" d="M0 0C.17-.17 .34-.34 .511-.511 .782-.803 1.104-1.01 1.476-1.131 1.834-1.319 2.219-1.405 2.632-1.389 3.045-1.405 3.43-1.319 3.788-1.131 4.16-1.01 4.482-.803 4.753-.511 4.91-.308 5.066-.106 5.222 .097 5.494 .564 5.63 1.069 5.632 1.611 5.596 1.877 5.561 2.142 5.525 2.408 5.382 2.916 5.125 3.358 4.753 3.732 4.583 3.902 4.413 4.072 4.243 4.243 3.971 4.535 3.649 4.742 3.277 4.863 2.92 5.051 2.534 5.137 2.121 5.121 1.708 5.137 1.323 5.051 .965 4.863 .594 4.742 .272 4.535 0 4.243-.156 4.04-.313 3.838-.469 3.635-.74 3.168-.877 2.663-.879 2.121-.843 1.855-.807 1.59-.772 1.324-.629 .816-.372 .374 0 0" fill="#333939"/>
<path transform="matrix(2,0,0,-2,65.0914,16.544404)" d="M0 0C-.015-.537-.03-1.075-.044-1.612 .382-1.436 .809-1.259 1.236-1.082 1.21-1.055 1.187-1.028 1.164-.999 1.203-1.049 1.242-1.1 1.281-1.15 1.233-1.086 1.194-1.018 1.162-.944 1.187-1.004 1.212-1.063 1.238-1.123 1.202-1.035 1.177-.945 1.164-.851L1.191-1.05C1.177-.941 1.177-.831 1.191-.721L1.164-.921C1.181-.811 1.209-.705 1.252-.603 1.227-.662 1.202-.722 1.176-.782 1.215-.695 1.261-.613 1.319-.537 1.279-.587 1.24-.638 1.201-.688 1.255-.62 1.315-.558 1.384-.504 1.333-.543 1.283-.582 1.232-.621 1.297-.572 1.366-.532 1.441-.499 1.381-.525 1.322-.55 1.262-.575 1.334-.546 1.407-.526 1.484-.514 1.418-.523 1.351-.532 1.285-.541 1.376-.529 1.467-.529 1.559-.54 1.492-.531 1.426-.522 1.36-.513 1.467-.528 1.571-.556 1.671-.598 1.611-.573 1.552-.548 1.492-.523 1.592-.566 1.685-.621 1.772-.688 1.722-.649 1.671-.61 1.62-.571 1.699-.634 1.77-.704 1.832-.784 1.793-.734 1.754-.683 1.715-.632 1.77-.706 1.816-.785 1.852-.87 1.827-.81 1.802-.751 1.776-.691 1.805-.763 1.825-.836 1.837-.912L1.81-.713C1.813-.736 1.816-.759 1.818-.783 1.834-.984 1.891-1.166 2.037-1.313 2.167-1.443 2.381-1.541 2.568-1.533 2.762-1.524 2.963-1.46 3.098-1.313 3.227-1.173 3.333-.979 3.318-.783 3.28-.309 3.086 .148 2.717 .46 2.355 .766 1.924 .96 1.445 .969 .984 .977 .507 .782 .196 .439-.118 .092-.277-.325-.316-.787-.357-1.281-.164-1.787 .175-2.143 .383-2.361 .725-2.411 .995-2.298 1.272-2.181 1.447-1.915 1.456-1.612 1.47-1.075 1.485-.537 1.5 0 1.511 .393 1.147 .768 .75 .75 .334 .731 .012 .421 0 0" fill="#333939"/>
<path transform="matrix(2,0,0,-2,68.4374,17.416199)" d="M0 0C.338 .958-.103 2.04-.937 2.577-1.16 2.72-1.47 2.708-1.694 2.577-1.942 2.432-2.036 2.2-2.066 1.929-2.221 .501-2.259-.936-2.179-2.371-2.157-2.762-1.849-3.14-1.429-3.121-1.041-3.103-.655-2.79-.679-2.371-.759-.936-.721 .501-.566 1.929-.942 1.713-1.318 1.497-1.694 1.281-1.626 1.234-1.629 1.24-1.704 1.298-1.674 1.274-1.645 1.248-1.618 1.221-1.566 1.171-1.507 1.097-1.583 1.199-1.536 1.136-1.501 1.068-1.46 1.002-1.383 .88-1.492 1.119-1.434 .94-1.414 .875-1.4 .809-1.385 .742-1.429 .929-1.388 .736-1.388 .682-1.388 .625-1.43 .438-1.384 .622-1.403 .546-1.42 .473-1.446 .399-1.577 .028-1.298-.438-.923-.524-.503-.619-.14-.397 0 0" fill="#333939"/>
<path transform="matrix(2,0,0,-2,70.0316,36.64099)" d="M0 0C1.598 .804 3.195 1.609 4.793 2.413 4.969 2.502 5.032 2.763 4.927 2.926 4.812 3.106 4.602 3.155 4.414 3.061 2.817 2.256 1.219 1.452-.379 .648-.554 .559-.618 .297-.513 .135-.397-.045-.188-.095 0 0" fill="#4d595b"/>
<path transform="matrix(2,0,0,-2,80.3294,37.63559)" d="M0 0C-1.305-.807-3.047-.943-4.445-.286-5.112 .027-5.7 .508-6.069 1.135-6.422 1.735-6.568 2.419-6.547 3.113-6.505 4.458-5.761 5.826-4.4 6.245-2.746 6.755-.906 5.87 .11 4.556 .713 3.776 1.138 2.721 .895 1.727 .685 .868 .03 .131-.869 .003-1.069-.026-1.179-.281-1.131-.458-1.071-.674-.871-.749-.669-.72 .295-.583 1.078 .161 1.449 1.035 1.877 2.042 1.731 3.156 1.26 4.122 .381 5.926-1.666 7.275-3.704 7.129-4.616 7.064-5.488 6.7-6.126 6.038-6.69 5.452-7.061 4.684-7.21 3.888-7.363 3.076-7.322 2.215-7.033 1.436-6.723 .599-6.161-.091-5.425-.592-3.908-1.624-1.85-1.692-.199-.955 0-.866 .193-.763 .379-.648 .788-.394 .412 .255 0 0" fill="#4d595b"/>
<path transform="matrix(2,0,0,-2,56.3558,85.3778)" d="M0 0C.105-.005 .209-.014 .314-.028L.114-.001C.401-.042 .679-.119 .947-.229 .887-.204 .828-.179 .768-.153 1.03-.265 1.27-.407 1.501-.573 1.571-.622 1.35-.447 1.458-.54 1.483-.561 1.509-.582 1.534-.603 1.588-.651 1.641-.7 1.693-.75 1.739-.796 1.785-.844 1.828-.893 1.872-.941 2.038-1.153 1.886-.953 2.01-1.116 2.13-1.242 2.335-1.298 2.514-1.348 2.753-1.325 2.912-1.223 3.073-1.119 3.214-.966 3.257-.774 3.299-.592 3.301-.353 3.181-.196 2.803 .3 2.35 .725 1.792 1.016 1.233 1.309 .63 1.472 0 1.5-.392 1.517-.768 1.143-.75 .75-.731 .329-.42 .019 0 0" fill="#927a62"/>
<path transform="matrix(2,0,0,-2,54.7162,84.9668)" d="M0 0C-.008-1.749 1.604-3.333 3.367-3.232 3.758-3.209 4.136-2.903 4.117-2.482 4.1-2.095 3.786-1.708 3.367-1.732 3.22-1.74 3.075-1.735 2.93-1.716L3.129-1.742C2.997-1.723 2.867-1.694 2.74-1.653 2.689-1.637 2.623-1.597 2.57-1.591 2.603-1.595 2.747-1.67 2.632-1.616 2.604-1.603 2.577-1.59 2.55-1.576 2.43-1.515 2.318-1.444 2.207-1.367 2.107-1.297 2.326-1.463 2.257-1.406 2.233-1.387 2.209-1.368 2.186-1.348 2.135-1.305 2.085-1.259 2.037-1.212 1.994-1.169 1.952-1.125 1.911-1.079 1.891-1.056 1.872-1.032 1.852-1.009 1.758-.904 1.96-1.161 1.879-1.046 1.805-.941 1.735-.835 1.674-.722 1.644-.665 1.624-.593 1.587-.542 1.595-.553 1.656-.715 1.622-.62 1.61-.586 1.597-.552 1.585-.517 1.544-.39 1.514-.261 1.494-.129L1.521-.328C1.507-.219 1.5-.11 1.5 0 1.502 .392 1.154 .768 .75 .75 .342 .732 .002 .42 0 0" fill="#927a62"/>
<path transform="matrix(2,0,0,-2,59.7714,86.2996)" d="M0 0C.177 .066 .357 .098 .538 .147 .629 .172 .379 .134 .522 .146 .575 .15 .627 .155 .68 .158 .769 .163 .857 .164 .945 .161 1.005 .159 1.161 .176 1.21 .142 1.107 .157 1.085 .16 1.142 .151 1.169 .147 1.195 .143 1.221 .138 1.265 .13 1.308 .121 1.352 .112 1.439 .092 1.524 .07 1.609 .044 1.674 .024 1.823-.063 1.886-.053 1.831-.062 1.761 .003 1.879-.052 1.919-.071 1.959-.09 1.999-.11 2.078-.151 2.155-.195 2.231-.241 2.314-.292 2.392-.351 2.473-.405 2.549-.456 2.364-.31 2.467-.403 2.5-.433 2.535-.461 2.567-.49 2.639-.556 2.708-.624 2.774-.696 2.804-.729 2.832-.762 2.861-.796 2.934-.881 2.918-.827 2.858-.79 2.917-.826 2.969-.95 3.005-1.01 3.06-1.102 3.109-1.197 3.154-1.293 3.32-1.65 3.861-1.768 4.18-1.562 4.547-1.326 4.627-.918 4.449-.536 3.642 1.194 1.39 2.114-.399 1.446-.765 1.31-1.055 .933-.923 .524-.807 .165-.394-.147 0 0" fill="#927a62"/>
<path transform="matrix(2,0,0,-2,60.9156,86.906398)" d="M0 0C.94-1.565 2.768-2.556 4.6-2.427 4.99-2.4 5.369-2.102 5.35-1.677 5.333-1.295 5.019-.898 4.6-.927 4.414-.94 4.229-.943 4.044-.931 3.995-.928 3.947-.923 3.898-.919 3.796-.911 3.88-.935 3.923-.925 3.851-.942 3.706-.889 3.635-.874 3.454-.835 3.275-.784 3.1-.722 3.054-.706 3.009-.688 2.963-.671 2.883-.641 2.926-.654 2.98-.679 2.891-.638 2.802-.598 2.716-.553 2.56-.472 2.408-.381 2.263-.282 2.223-.254 2.184-.224 2.144-.197 2.069-.147 2.242-.28 2.133-.19 2.065-.133 1.998-.077 1.933-.018 1.797 .107 1.668 .241 1.549 .384 1.536 .4 1.436 .531 1.499 .445 1.562 .358 1.455 .509 1.454 .511 1.398 .591 1.346 .673 1.295 .757 1.093 1.093 .612 1.247 .269 1.026-.069 .808-.216 .36 0 0" fill="#927a62"/>
<path transform="matrix(2,0,0,-2,61.1266,92.544399)" d="M0 0C1.867-1.032 4.249-.746 5.838 .666 6.141 .935 6.112 1.452 5.838 1.727 5.537 2.028 5.081 1.997 4.777 1.727 4.741 1.695 4.704 1.663 4.668 1.631 4.635 1.602 4.586 1.566 4.65 1.614 4.563 1.548 4.473 1.488 4.382 1.43 4.209 1.321 4.027 1.224 3.84 1.143 3.913 1.175 3.863 1.153 3.818 1.137 3.773 1.12 3.728 1.103 3.682 1.087 3.579 1.052 3.475 1.021 3.37 .994 3.277 .969 3.182 .948 3.088 .929 3.04 .92 2.993 .912 2.945 .904 2.815 .883 3.121 .919 2.893 .898 2.7 .88 2.507 .87 2.314 .875 2.205 .878 2.097 .885 1.989 .896 1.975 .897 1.832 .917 1.909 .905 1.986 .892 1.844 .918 1.83 .92 1.629 .957 1.431 1.009 1.237 1.075 1.192 1.091 1.147 1.108 1.101 1.125 .977 1.17 1.119 1.113 1.047 1.147 .949 1.194 .852 1.243 .757 1.295 .403 1.491-.061 1.382-.269 1.026-.47 .682-.356 .197 0 0" fill="#927a62"/>
<path transform="matrix(2,0,0,-2,69.1008,89.475399)" d="M0 0C.097 .069 .197 .134 .302 .191 .354 .219 .407 .244 .46 .271 .584 .333 .387 .258 .471 .275 .573 .296 .676 .346 .778 .373 .835 .387 .893 .401 .95 .412 .983 .418 1.179 .443 .983 .422 1.21 .446 1.436 .454 1.663 .435 1.712 .431 1.762 .426 1.811 .421 1.622 .442 1.804 .419 1.847 .411 1.965 .389 2.081 .361 2.195 .327 2.301 .297 2.402 .253 2.506 .221 2.556 .206 2.4 .275 2.546 .202 2.59 .18 2.635 .159 2.679 .137 2.785 .082 2.887 .021 2.987-.044 3.036-.077 3.084-.111 3.132-.145 3.028-.072 3.113-.13 3.165-.175 3.248-.245 3.326-.319 3.401-.397 3.434-.433 3.467-.469 3.499-.506 3.545-.558 3.602-.641 3.529-.537 3.597-.634 3.662-.731 3.72-.834 3.749-.886 3.774-.94 3.801-.992 3.875-1.132 3.756-.871 3.818-1.033 3.964-1.411 4.323-1.672 4.741-1.557 5.103-1.458 5.411-1.015 5.265-.634 4.813 .542 3.85 1.385 2.651 1.756 1.53 2.104 .213 1.986-.757 1.295-1.086 1.06-1.244 .641-1.026 .269-.836-.057-.332-.236 0 0" fill="#927a62"/>
<path transform="matrix(2,0,0,-2,68.9608,89.214)" d="M0 0C.963-1.276 2.367-2.199 3.963-2.445 4.349-2.505 4.788-2.348 4.885-1.922 4.967-1.563 4.776-1.063 4.361-.999 4.029-.948 3.702-.867 3.384-.755 3.346-.742 3.188-.653 3.155-.669 3.188-.653 3.293-.73 3.158-.669 3.125-.655 3.092-.639 3.059-.624 2.903-.551 2.75-.47 2.601-.382 2.461-.299 2.323-.209 2.19-.114 2.183-.108 2.106-.047 2.103-.049 2.175-.106 2.189-.117 2.146-.083 2.132-.072 2.118-.061 2.104-.049 2.04 .002 1.977 .055 1.916 .109 1.787 .223 1.663 .344 1.545 .47 1.489 .53 1.435 .591 1.382 .653 1.358 .681 1.335 .709 1.312 .737 1.192 .88 1.408 .608 1.295 .757 1.173 .919 1.051 1.046 .847 1.102 .667 1.151 .428 1.129 .269 1.026-.04 .827-.253 .335 0 0" fill="#927a62"/>
<path transform="matrix(2,0,0,-2,71.295,96.0412)" d="M0 0C2.622-.712 5.418 1.341 5.634 4.015 5.666 4.407 5.266 4.782 4.884 4.765 4.451 4.746 4.168 4.435 4.134 4.015 4.128 3.945 4.112 3.835 4.133 3.968 4.124 3.907 4.113 3.846 4.1 3.786 4.073 3.656 4.037 3.527 3.994 3.402 3.987 3.381 3.919 3.197 3.955 3.291 3.992 3.385 3.915 3.205 3.905 3.185 3.851 3.075 3.792 2.968 3.727 2.864 3.694 2.812 3.661 2.76 3.626 2.71 3.605 2.68 3.467 2.507 3.577 2.64 3.498 2.544 3.417 2.451 3.331 2.362 3.245 2.273 3.154 2.188 3.06 2.108 3.033 2.084 2.887 1.968 3.019 2.069 2.97 2.031 2.919 1.995 2.868 1.96 2.663 1.818 2.447 1.699 2.222 1.593 2.038 1.507 2.364 1.642 2.172 1.574 2.114 1.553 2.057 1.531 1.998 1.512 1.881 1.474 1.762 1.441 1.642 1.414 1.582 1.401 1.522 1.391 1.462 1.378 1.288 1.342 1.581 1.384 1.418 1.372 1.296 1.363 1.174 1.354 1.051 1.354 .98 1.355 .909 1.358 .837 1.363 .814 1.364 .616 1.388 .723 1.372 .831 1.355 .632 1.39 .61 1.395 .539 1.41 .469 1.427 .399 1.446 .02 1.549-.434 1.319-.524 .923-.614 .527-.405 .11 0 0" fill="#927a62"/>
<path transform="matrix(2,0,0,-2,74.29,94.7624)" d="M0 0C.085 .114-.045-.05 .013 .017 .04 .048 .065 .08 .091 .111 .15 .181 .211 .25 .273 .317 .398 .45 .53 .577 .669 .697 .699 .724 .73 .75 .762 .776 .777 .788 .909 .894 .829 .831 .757 .775 .862 .855 .875 .865 .916 .895 .957 .924 .999 .953 1.15 1.057 1.306 1.153 1.466 1.242 1.618 1.326 1.774 1.4 1.931 1.471 2.014 1.509 1.815 1.427 1.949 1.477 1.988 1.491 2.025 1.506 2.064 1.52 2.15 1.552 2.236 1.581 2.324 1.608 2.499 1.662 2.676 1.707 2.855 1.743 2.937 1.759 3.043 1.798 3.126 1.79 3.07 1.795 3.016 1.777 3.108 1.786 3.169 1.792 3.229 1.798 3.29 1.803 3.68 1.834 4.06 2.126 4.04 2.553 4.023 2.933 3.709 3.337 3.29 3.303 1.449 3.155-.191 2.234-1.295 .757-1.531 .442-1.357-.094-1.026-.269-.633-.477-.252-.337 0 0" fill="#927a62"/>
<path transform="matrix(2,0,0,-2,79.4444,87.944599)" d="M0 0C.166-.046 .327-.103 .488-.166 .557-.193 .318-.091 .473-.162 .507-.177 .541-.193 .574-.209 .655-.249 .734-.29 .812-.335 .962-.419 1.107-.512 1.246-.613 1.275-.634 1.304-.662 1.336-.68 1.163-.584 1.278-.636 1.324-.674 1.394-.731 1.461-.79 1.527-.851 1.648-.963 1.762-1.081 1.87-1.205 1.9-1.239 1.929-1.273 1.957-1.308 1.988-1.345 2.072-1.474 1.951-1.297 2.002-1.371 2.057-1.442 2.107-1.516 2.198-1.653 2.282-1.794 2.358-1.94 2.399-2.02 2.437-2.101 2.474-2.182 2.533-2.312 2.415-2.024 2.467-2.169 2.483-2.211 2.499-2.253 2.515-2.295 2.648-2.663 3.031-2.95 3.437-2.819 3.799-2.702 4.104-2.291 3.961-1.896 3.378-.288 2.055 .984 .399 1.446 .021 1.552-.434 1.316-.524 .923-.614 .525-.404 .113 0 0" fill="#927a62"/>
<path transform="matrix(2,0,0,-2,79.1124,91.839)" d="M0 0C1.308-.822 3.049-.629 4.203 .365 4.501 .622 4.486 1.166 4.203 1.426 3.885 1.717 3.46 1.7 3.142 1.426 3.12 1.407 3.086 1.387 3.069 1.364 3.107 1.415 3.184 1.449 3.088 1.381 3.036 1.344 2.982 1.309 2.928 1.276 2.867 1.239 2.804 1.205 2.74 1.173 2.712 1.159 2.683 1.146 2.654 1.132 2.547 1.082 2.694 1.16 2.702 1.152 2.688 1.165 2.358 1.042 2.315 1.032 2.248 1.016 2.168 1.013 2.104 .99 2.135 1.001 2.266 1.007 2.161 .998 2.121 .995 2.081 .991 2.042 .988 1.906 .979 1.771 .979 1.636 .989 1.604 .991 1.572 .995 1.54 .997 1.436 1.007 1.566 1 1.598 .989 1.532 1.011 1.455 1.014 1.387 1.031 1.256 1.062 1.131 1.122 1.002 1.153 1.036 1.145 1.14 1.089 1.05 1.134 1.021 1.148 .992 1.161 .964 1.176 .893 1.212 .825 1.253 .757 1.295 .424 1.504-.084 1.376-.269 1.026-.464 .657-.355 .223 0 0" fill="#927a62"/>
<path transform="matrix(2,0,0,-2,83.3056,89.480197)" d="M0 0C.349 .144 .708 .262 1.076 .348 1.489 .445 1.668 .471 2.076 .494 2.873 .538 3.45 .47 4.196 .254 4.573 .146 5.03 .387 5.119 .778 5.21 1.179 4.998 1.584 4.595 1.701 2.966 2.171 1.171 2.095-.399 1.446-.76 1.297-1.058 .942-.923 .524-.81 .176-.388-.16 0 0" fill="#927a62"/>
<path transform="matrix(2,0,0,-2,85.978,92.0208)" d="M0 0C2.023-.229 4.147 .606 5.49 2.132 5.758 2.436 5.79 2.893 5.49 3.192 5.218 3.465 4.699 3.498 4.43 3.192 4.286 3.029 4.135 2.873 3.973 2.727 3.888 2.65 3.8 2.575 3.71 2.504 3.776 2.555 3.589 2.417 3.554 2.392 3.375 2.268 3.189 2.155 2.998 2.052 2.896 1.998 2.793 1.946 2.688 1.898 2.642 1.877 2.595 1.855 2.548 1.835 2.64 1.874 2.511 1.823 2.478 1.81 1.611 1.483 .926 1.395 0 1.5-.391 1.544-.767 1.123-.75 .75-.73 .306-.419 .048 0 0" fill="#927a62"/>
<path transform="matrix(2,0,0,-2,89.682,90.401599)" d="M0 0C2.244-.562 4.678 .407 5.944 2.336 6.167 2.674 6.012 3.165 5.675 3.362 5.31 3.576 4.872 3.432 4.649 3.093 4.616 3.042 4.582 2.991 4.547 2.941 4.534 2.924 4.437 2.797 4.511 2.889 4.443 2.804 4.371 2.722 4.297 2.642 4.148 2.482 3.988 2.334 3.818 2.196 3.759 2.148 3.873 2.231 3.768 2.159 3.718 2.124 3.669 2.089 3.618 2.055 3.527 1.995 3.434 1.937 3.339 1.883 3.244 1.828 3.147 1.777 3.049 1.729 2.994 1.703 2.939 1.677 2.883 1.652 2.979 1.695 2.866 1.646 2.826 1.631 2.622 1.553 2.412 1.488 2.199 1.438 2.092 1.412 1.985 1.393 1.878 1.373 1.652 1.331 1.956 1.379 1.824 1.364 1.764 1.358 1.704 1.352 1.643 1.347 1.426 1.331 1.207 1.33 .989 1.345 .929 1.35 .868 1.355 .808 1.362 .678 1.376 .98 1.327 .755 1.37 .636 1.393 .517 1.417 .399 1.446 .006 1.545-.415 1.32-.524 .923-.63 .538-.395 .099 0 0" fill="#927a62"/>
<path transform="matrix(2,0,0,-2,92.5086,86.999797)" d="M0 0C.164 .026 .253 .038 .476 .057 .646 .072 .815 .083 .986 .089 1.368 .102 1.752 .092 2.133 .059 2.784 .004 3.521-.159 4.218-.394 4.59-.52 5.054-.25 5.141 .129 5.235 .545 5.015 .917 4.617 1.052 2.999 1.6 1.284 1.711-.399 1.446-.788 1.385-1.038 .879-.923 .524-.786 .101-.417-.065 0 0" fill="#927a62"/>
<path transform="matrix(2,0,0,-2,100.7688,91.604)" d="M0 0C-.109 .851-.063 1.597 .132 2.35 .339 3.148 .643 3.781 1.155 4.477 1.388 4.794 1.219 5.328 .886 5.503 .495 5.71 .109 5.573-.14 5.234-1.229 3.754-1.733 1.824-1.5 0-1.45-.388-1.191-.77-.75-.75-.386-.734 .053-.417 0 0" fill="#927a62"/>
<path transform="matrix(2,0,0,-2,100.035,91.842998)" d="M0 0C1.171 1.432 1.871 3.135 2.043 4.978 2.079 5.37 1.672 5.745 1.293 5.728 .855 5.708 .582 5.398 .543 4.978 .419 3.643-.201 2.113-1.061 1.061-1.309 .757-1.38 .293-1.061 0-.786-.252-.265-.324 0 0" fill="#927a62"/>
<path transform="matrix(2,0,0,-2,98.733,85.471797)" d="M0 0C.071 .064 .144 .126 .218 .187 .157 .137 .199 .173 .236 .201 .275 .229 .314 .257 .353 .284 .51 .393 .673 .493 .841 .584 .926 .629 1.011 .672 1.097 .713 1.141 .733 1.184 .753 1.228 .772 1.155 .741 1.201 .761 1.248 .779 1.438 .851 1.63 .916 1.827 .968 2.013 1.017 2.2 1.051 2.389 1.084 2.509 1.105 2.282 1.077 2.403 1.085 2.451 1.088 2.498 1.095 2.546 1.099 2.641 1.107 2.737 1.112 2.832 1.115 3.023 1.12 3.215 1.115 3.405 1.099 3.453 1.095 3.5 1.089 3.548 1.085 3.669 1.075 3.443 1.106 3.562 1.083 3.667 1.062 3.773 1.045 3.879 1.022 4.261 .939 4.708 1.136 4.801 1.546 4.887 1.925 4.687 2.379 4.277 2.469 2.378 2.883 .387 2.358-1.061 1.061-1.354 .798-1.348 .264-1.061 0-.748-.287-.313-.28 0 0" fill="#927a62"/>
<path transform="matrix(2,0,0,-2,104.5238,87.725399)" d="M0 0C1.365 1.103 2.188 2.722 2.412 4.447 2.463 4.838 2.031 5.214 1.662 5.197 1.212 5.177 .966 4.866 .912 4.447 .925 4.551 .922 4.516 .908 4.434 .902 4.394 .895 4.353 .887 4.313 .87 4.223 .852 4.133 .831 4.043 .789 3.864 .738 3.687 .68 3.513 .651 3.425 .619 3.339 .586 3.253 .58 3.238 .532 3.113 .567 3.2 .605 3.297 .54 3.139 .531 3.121 .455 2.953 .372 2.789 .281 2.629 .196 2.478 .104 2.33 .005 2.187-.047 2.111-.102 2.037-.156 1.963-.063 2.09-.15 1.971-.171 1.945-.197 1.914-.223 1.882-.249 1.851-.494 1.562-.766 1.299-1.061 1.061-1.367 .813-1.338 .254-1.061 0-.735-.299-.327-.264 0 0" fill="#927a62"/>
<path transform="matrix(2,0,0,-2,107.6344,77.5648)" d="M0 0C-.543-1.257-.846-2.584-.858-3.957-.861-4.35-.511-4.725-.108-4.707 .301-4.689 .639-4.378 .642-3.957 .645-3.65 .661-3.344 .694-3.038 .701-2.973 .708-2.908 .717-2.842 .694-3.014 .722-2.819 .727-2.781 .752-2.63 .779-2.479 .811-2.329 .87-2.05 .942-1.774 1.027-1.502 1.072-1.355 1.122-1.21 1.175-1.066 1.197-1.004 1.221-.943 1.245-.882 1.261-.841 1.277-.8 1.294-.76 1.26-.838 1.261-.837 1.295-.757 1.45-.398 1.414 .064 1.026 .269 .703 .44 .166 .385 0 0" fill="#927a62"/>
<path transform="matrix(2,0,0,-2,109.2444,75.9902)" d="M0 0C.053-.096 .102-.193 .151-.291 .189-.367 .202-.4 .248-.527 .322-.732 .382-.942 .428-1.155 .439-1.208 .45-1.262 .459-1.316 .465-1.347 .489-1.498 .476-1.399 .491-1.507 .499-1.617 .505-1.725 .519-1.957 .517-2.19 .499-2.422 .484-2.628 .474-2.701 .419-2.951 .369-3.178 .304-3.401 .224-3.619 .164-3.781 .106-3.904-.006-4.108-.125-4.323-.262-4.527-.412-4.722-.659-5.043-.461-5.562-.143-5.748 .244-5.974 .635-5.801 .883-5.479 2.239-3.717 2.363-1.171 1.295 .757 1.099 1.111 .613 1.227 .269 1.026-.088 .817-.197 .356 0 0" fill="#927a62"/>
<path transform="matrix(2,0,0,-2,108.4702,78.840999)" d="M0 0V-1.787C0-1.98 .084-2.182 .22-2.318 .35-2.448 .563-2.546 .75-2.537 1.156-2.519 1.5-2.208 1.5-1.787V0C1.5 .192 1.416 .394 1.28 .53 1.15 .66 .937 .758 .75 .75 .344 .732 0 .42 0 0" fill="#927a62"/>
<path transform="matrix(2,0,0,-2,109.4608,78.2818)" d="M0 0C1.605-.108 3.211-.007 4.795 .271 5.182 .339 5.435 .834 5.319 1.194 5.184 1.611 4.811 1.79 4.396 1.717 3.002 1.473 1.48 1.4 0 1.5-.392 1.526-.767 1.136-.75 .75-.731 .321-.42 .028 0 0" fill="#927a62"/>
<path transform="matrix(2,0,0,-2,113.5016,74.374797)" d="M0 0C.012-.024 .126-.272 .085-.174 .124-.269 .159-.366 .191-.464 .255-.66 .307-.861 .346-1.063 .351-1.09 .391-1.374 .377-1.247 .389-1.35 .397-1.453 .402-1.556 .412-1.749 .411-1.944 .398-2.137 .393-2.227 .385-2.317 .374-2.407 .389-2.281 .346-2.564 .341-2.591 .301-2.794 .249-2.994 .185-3.19 .153-3.288 .118-3.386 .079-3.481 .12-3.382 .009-3.631-.003-3.655-.095-3.84-.201-4.018-.315-4.19-.54-4.527-.381-5.02-.046-5.216 .321-5.431 .755-5.285 .98-4.947 2.102-3.262 2.187-1.042 1.295 .757 1.115 1.12 .602 1.221 .269 1.026-.101 .81-.181 .364 0 0" fill="#927a62"/>
<path transform="matrix(2,0,0,-2,112.4624,75.2756)" d="M0 0C.083-.851 .166-1.703 .249-2.554 .268-2.757 .319-2.935 .468-3.084 .598-3.214 .812-3.312 .999-3.304 1.372-3.287 1.789-2.972 1.749-2.554 1.666-1.703 1.583-.851 1.5 0 1.48 .203 1.43 .381 1.28 .53 1.15 .66 .937 .758 .75 .75 .376 .733-.041 .418 0 0" fill="#927a62"/>
<path transform="matrix(2,0,0,-2,114.5596,73.934)" d="M0 0C.14-.005 .278-.017 .418-.029 .502-.039 .487-.036 .374-.021 .409-.026 .443-.031 .478-.037 .53-.045 .581-.054 .633-.064 .898-.115 1.16-.186 1.415-.277 1.473-.297 1.529-.32 1.587-.341 1.663-.372 1.652-.367 1.553-.325 1.585-.339 1.617-.353 1.649-.368 1.768-.422 1.885-.48 2-.543 2.115-.605 2.228-.672 2.338-.743 2.396-.781 2.454-.82 2.511-.861 2.545-.884 2.736-1.03 2.569-.9 2.734-1.027 2.882-1.119 3.1-1.119 3.284-1.119 3.503-1.038 3.63-.9 3.877-.631 3.961-.096 3.63 .161 3.085 .584 2.513 .914 1.863 1.152 1.269 1.37 .631 1.479 0 1.5-.393 1.513-.768 1.146-.75 .75-.731 .333-.421 .014 0 0" fill="#927a62"/>
<path transform="matrix(2,0,0,-2,113.6764,75.094799)" d="M0 0C1.332-.299 2.699-.13 3.923 .471 4.276 .644 4.401 1.174 4.192 1.497 3.959 1.859 3.544 1.952 3.166 1.766 3.099 1.733 3.027 1.689 2.955 1.668 3.131 1.72 2.95 1.666 2.919 1.654 2.792 1.606 2.663 1.562 2.533 1.524 2.403 1.486 2.271 1.453 2.138 1.426 2.071 1.412 2.004 1.4 1.937 1.389 1.909 1.384 1.88 1.379 1.851 1.375 1.954 1.388 1.963 1.39 1.877 1.379 1.606 1.354 1.336 1.34 1.063 1.354 1.005 1.357 .947 1.36 .889 1.365 .849 1.369 .589 1.383 .799 1.372 .666 1.379 .528 1.417 .399 1.446 .017 1.532-.431 1.33-.524 .923-.611 .542-.409 .092 0 0" fill="#927a62"/>
<path transform="matrix(2,0,0,-2,120.9936,70.8836)" d="M0 0C.321-.606 .642-1.212 .964-1.818 1.148-2.165 1.659-2.3 1.99-2.087 2.343-1.859 2.456-1.432 2.259-1.061 1.938-.455 1.616 .151 1.295 .757 1.111 1.104 .6 1.239 .269 1.026-.084 .799-.197 .371 0 0" fill="#927a62"/>
<path transform="matrix(2,0,0,-2,122.8684,70.9646)" d="M0 0C.085-.014 .168-.037 .248-.069 .188-.044 .129-.019 .069 .006 .163-.033 .249-.084 .331-.144 .28-.105 .23-.066 .179-.027 .273-.1 .356-.184 .429-.278 .39-.228 .351-.177 .312-.126 .391-.23 .455-.342 .507-.461 .482-.401 .457-.341 .431-.281 .489-.418 .528-.56 .549-.707L.522-.507C.54-.644 .541-.781 .523-.917L.549-.718C.533-.827 .505-.932 .463-1.034 .488-.975 .513-.915 .538-.855 .501-.941 .455-1.021 .4-1.096 .439-1.046 .478-.995 .517-.944 .48-.993 .44-1.037 .396-1.08 .114-1.353 .101-1.869 .396-2.14 .699-2.419 1.156-2.432 1.457-2.14 2.008-1.606 2.161-.762 1.936-.041 1.718 .66 1.154 1.32 .399 1.446 .194 1.481 .006 1.479-.179 1.371-.335 1.28-.483 1.101-.524 .923-.568 .731-.558 .515-.448 .345-.349 .19-.189 .032 0 0" fill="#927a62"/>
<path transform="matrix(2,0,0,-2,122.7056,77.81239)" d="M0 0C.061-3.191 .589-6.364 1.577-9.399 1.875-10.313 3.323-9.922 3.023-9 2.074-6.086 1.558-3.065 1.5 0 1.482 .964-.018 .967 0 0" fill="#927a62"/>
<path transform="matrix(2,0,0,-2,124.2946,72.31419)" d="M0 0C-.977-.223-1.171-1.256-.987-2.106-.885-2.576-.638-2.997-.407-3.413-.123-3.925 .173-4.432 .479-4.932 1.709-6.94 3.115-8.838 4.66-10.615 5.294-11.345 6.351-10.28 5.72-9.554 4.478-8.126 3.338-6.616 2.31-5.026 1.809-4.252 1.335-3.461 .888-2.655 .72-2.352 .523-2.054 .46-1.708 .441-1.603 .463-1.465 .443-1.379 .455-1.43 .14-1.505 .399-1.446 1.34-1.232 .941 .214 0 0" fill="#927a62"/>
<path transform="matrix(2,0,0,-2,122.8356,73.107799)" d="M0 0C.29-1.167 1.033-2.101 1.886-2.92 2.845-3.841 3.836-4.71 4.733-5.697 5.657-6.715 6.522-7.785 7.382-8.857 8.185-9.859 9.083-10.96 8.933-12.32 8.827-13.278 10.328-13.27 10.433-12.32 10.577-11.01 9.964-9.81 9.21-8.782 8.379-7.648 7.466-6.561 6.55-5.495 5.648-4.444 4.694-3.45 3.666-2.522 2.75-1.694 1.756-.847 1.446 .399 1.214 1.335-.233 .938 0 0" fill="#927a62"/>
<path transform="matrix(2,0,0,-2,81.9114,59.436197)" d="M0 0C-.201-2.243 .876-4.437 2.663-5.767 2.988-6.009 3.501-5.82 3.689-5.498 3.913-5.115 3.746-4.714 3.42-4.472 3.327-4.402 3.411-4.468 3.358-4.424 3.319-4.391 3.279-4.358 3.24-4.325 3.153-4.249 3.068-4.171 2.985-4.09 2.821-3.929 2.664-3.757 2.522-3.575 2.57-3.637 2.516-3.567 2.499-3.543 2.462-3.491 2.424-3.439 2.388-3.385 2.323-3.29 2.261-3.192 2.201-3.093 2.083-2.894 1.977-2.688 1.881-2.478 1.868-2.448 1.837-2.37 1.866-2.444 1.847-2.396 1.829-2.348 1.811-2.3 1.77-2.191 1.733-2.082 1.7-1.971 1.632-1.75 1.577-1.525 1.537-1.297 1.525-1.234 1.514-1.171 1.506-1.107 1.517-1.19 1.508-1.119 1.504-1.077 1.495-.962 1.484-.847 1.48-.731 1.47-.487 1.478-.243 1.5 0 1.536 .404 1.129 .75 .75 .75 .314 .75 .036 .405 0 0" fill="#dbf3ff"/>
<path transform="matrix(2,0,0,-2,81.458,57.964998)" d="M0 0C-.001-.013-.018-.14-.013-.05-.01 .005-.003-.035-.042-.07 .077 .036-.045-.056 .034-.023 .065-.01 .214 .013 .117 .002 .205-.002 .226-.001 .18 .006 .127 .015 .153 .007 .259-.017 .282-.027 .329-.046 .356-.06 .483-.124 .588-.214 .69-.312 1.265-.859 1.766-1.506 2.269-2.117 3.297-3.366 4.255-4.668 5.153-6.013 5.242-5.671 5.332-5.329 5.422-4.987 5.588-4.9 5.581-5.043 5.467-4.943 5.386-4.873 5.299-4.827 5.219-4.748 5.054-4.584 4.898-4.404 4.755-4.22 4.428-3.798 4.152-3.337 3.882-2.877 3.327-1.93 2.804-.966 2.09-.125 1.734 .295 1.326 .721 .795 .907 .187 1.121-.534 .901-.742 .246-.953-.417-.455-1.034-.115-1.556 .217-2.066 .57-2.562 .941-3.044 1.792-4.153 2.725-5.188 3.752-6.136 4.461-6.79 5.524-5.731 4.813-5.075 4.002-4.327 3.242-3.526 2.544-2.672 2.199-2.25 1.873-1.814 1.562-1.367 1.41-1.148 1.262-.927 1.118-.704 1.046-.592 .975-.479 .905-.366 .87-.311 .756-.052 .704-.035 .696-.032 .495-.446 .488-.451 .425-.47 .362-.488 .299-.506 .281-.502 .263-.498 .245-.494 .26-.47 .368-.535 .398-.553 .47-.596 .422-.562 .406-.55 .457-.587 .507-.639 .554-.683 .65-.773 .743-.867 .833-.964 1.14-1.293 1.399-1.657 1.641-2.035 2.173-2.867 2.616-3.753 3.17-4.571 3.808-5.513 4.875-6.969 6.179-6.282 6.522-6.101 6.666-5.583 6.448-5.256 5.3-3.536 4.05-1.883 2.705-.313 2.112 .379 1.47 1.27 .519 1.462-.447 1.658-1.458 1.024-1.5 0-1.539-.965-.039-.963 0 0" fill="#dbf3ff"/>
<path transform="matrix(2,0,0,-2,83.5478,61.987794)" d="M0 0C.044-2.633-.44-5.224-1.414-7.67-1.564-8.047-1.25-8.494-.89-8.593-.463-8.71-.118-8.447 .032-8.069 1.052-5.509 1.546-2.754 1.5 0 1.484 .964-.016 .967 0 0" fill="#dbf3ff"/>
<path transform="matrix(2,0,0,-2,81.3736,62.2248)" d="M0 0C-.526-2.045-1.08-4.085-1.577-6.137-1.781-6.979-1.823-8.057-.975-8.572-.195-9.046 .763-8.785 1.101-7.931 1.25-7.554 .938-7.108 .577-7.009 .151-6.891-.195-7.154-.345-7.532-.312-7.414-.236-7.338-.117-7.304-.204-7.328-.212-7.33-.141-7.311-.103-7.288-.161-7.34-.218-7.277-.131-7.372-.209-7.241-.214-7.18-.221-7.083-.217-6.981-.205-6.885-.122-6.202 .133-5.509 .304-4.844 .685-3.362 1.066-1.881 1.446-.399 1.687 .537 .241 .936 0 0" fill="#dbf3ff"/>
<path transform="matrix(2,0,0,-2,85.518,64.3454)" d="M0 0C.482-2.656 1.636-5.126 3.295-7.248 3.545-7.567 4.094-7.509 4.356-7.248 4.671-6.932 4.607-6.507 4.356-6.187 2.858-4.272 1.88-1.988 1.446 .399 1.374 .798 .889 1.023 .524 .923 .104 .807-.073 .4 0 0" fill="#dbf3ff"/>
<path transform="matrix(2,0,0,-2,85.2834,69.1586)" d="M0 0C.113-1.091 .298-2.172 .579-3.233 .715-3.748 .873-4.257 1.051-4.759 1.217-5.226 1.37-5.75 1.662-6.156 2.31-7.057 3.486-7.037 4.262-6.308 5.068-5.552 4.993-4.393 4.506-3.485 3.992-2.528 2.996-1.924 2.57-.918 2.427-.579 1.937-.477 1.634-.611 1.298-.758 1.095-1.129 1.199-1.495 1.526-2.646 2.111-3.687 2.908-4.577 3.178-4.879 3.693-4.852 3.969-4.577 4.269-4.277 4.24-3.819 3.969-3.516 3.345-2.82 2.901-1.994 2.646-1.097 2.189-1.289 1.732-1.482 1.275-1.675 1.668-2.605 2.517-3.167 3.058-3.988 3.185-4.182 3.296-4.377 3.352-4.6 3.388-4.745 3.393-4.91 3.366-5.01 3.337-5.095 3.335-5.105 3.358-5.04 3.335-5.084 3.309-5.128 3.281-5.169 3.34-5.086 3.173-5.276 3.145-5.298 3.269-5.202 2.931-5.395 3.096-5.329 3.051-5.345 3.005-5.359 2.959-5.369 3.032-5.363 3.041-5.361 2.986-5.363 2.93-5.362 2.939-5.367 3.014-5.379 2.931-5.353 2.925-5.357 2.996-5.389 2.944-5.371 2.916-5.342 2.907-5.328 2.773-5.128 2.731-4.986 2.65-4.774 2.454-4.259 2.279-3.736 2.128-3.206 1.827-2.158 1.612-1.085 1.5 0 1.458 .403 1.185 .75 .75 .75 .377 .75-.042 .405 0 0" fill="#dbf3ff"/>
<path transform="matrix(2,0,0,-2,83.9296,73.729999)" d="M0 0C-.065 .503-.084 1.011-.052 1.517-.044 1.641-.033 1.765-.019 1.888-.015 1.922-.002 2.118-.017 1.917-.012 1.983 .002 2.05 .013 2.115 .056 2.37 .112 2.622 .179 2.871 .281 3.249 .052 3.703-.345 3.794-.739 3.883-1.158 3.675-1.267 3.27-1.552 2.209-1.641 1.09-1.5 0-1.473-.207-1.434-.377-1.28-.53-1.15-.66-.937-.758-.75-.75-.387-.734 .054-.417 0 0" fill="#dbf3ff"/>
<path transform="matrix(2,0,0,-2,93.6692,76.758998)" d="M0 0C-.244 .298-.487 .595-.731 .893-.781 .932-.832 .971-.882 1.01-.942 1.035-1.002 1.06-1.062 1.086-1.225 1.131-1.396 1.113-1.55 1.048-1.673 .996-1.768 .923-1.85 .817-1.944 .696-2.027 .521-2.011 .362-1.991 .167-1.994-.029-2.018-.224L-1.992-.024C-2.017-.21-2.062-.39-2.126-.566L-.872-.235C-.956-.157-1.033-.073-1.103 .017-1.064-.034-1.025-.084-.986-.135-1.095 .008-1.186 .163-1.257 .329-1.231 .269-1.206 .209-1.181 .15-1.25 .316-1.298 .489-1.323 .667L-1.297 .468-1.3 .492C-1.296 .595-1.317 .692-1.364 .781-1.395 .874-1.446 .955-1.519 1.022-1.649 1.153-1.863 1.25-2.05 1.242-2.244 1.233-2.445 1.17-2.58 1.022-2.704 .887-2.825 .684-2.8 .492-2.775 .303-2.752 .117-2.695-.065-2.641-.236-2.571-.402-2.49-.561-2.352-.834-2.156-1.088-1.933-1.296-1.735-1.48-1.468-1.562-1.203-1.489-1.076-1.453-.966-1.389-.872-1.296-.779-1.202-.715-1.092-.679-.965-.527-.548-.467-.079-.511 .362-.938 .186-1.365 .009-1.791-.168-1.548-.466-1.304-.763-1.061-1.061-.946-1.201-.704-1.28-.53-1.28-.346-1.28-.127-1.199 0-1.061 .131-.918 .229-.73 .22-.53L.193-.331C.157-.204 .093-.094 0 0" fill="#dbf3ff"/>
<path transform="matrix(2,0,0,-2,84.8368,74.2614)" d="M0 0C.176-2.053 .199-4.116 .053-6.172-.02-7.201-.133-8.227-.293-9.246-.426-10.093-.678-11.08 .253-11.562 .955-11.925 1.836-11.626 2.268-10.998 2.779-10.256 2.756-9.228 2.813-8.366 2.954-6.252 2.892-4.132 2.646-2.028 2.599-1.622 2.335-1.283 1.896-1.278 1.527-1.274 1.099-1.626 1.146-2.028 1.343-3.711 1.424-5.404 1.374-7.098 1.35-7.919 1.331-8.765 1.209-9.579 1.178-9.787 1.054-10.089 1.011-10.197 1.038-10.13 .901-10.371 .978-10.266 1.057-10.277 1.088-10.24 1.07-10.153 1.087-10.051 1.104-9.949 1.121-9.848 1.652-6.592 1.783-3.287 1.5 0 1.418 .955-.083 .963 0 0" fill="#dbf3ff"/>
<path transform="matrix(2,0,0,-2,85.5098,77.307399)" d="M0 0C.099-1.105 .198-2.21 .297-3.315 .332-3.705 .617-4.085 1.047-4.065 1.424-4.049 1.835-3.734 1.797-3.315 1.698-2.21 1.599-1.105 1.5 0 1.465 .39 1.18 .769 .75 .75 .374 .733-.038 .418 0 0" fill="#dbf3ff"/>
<path transform="matrix(2,0,0,-2,90.0292,93.677799)" d="M0 0C.024-.03 .048-.059 .072-.089 .033-.039-.006 .012-.046 .062 .125-.161 .266-.403 .378-.661 .353-.601 .327-.541 .302-.481 .421-.764 .502-1.059 .544-1.363L.517-1.163C.543-1.366 .551-1.569 .54-1.773 .52-2.166 .899-2.541 1.29-2.523 1.714-2.504 2.019-2.193 2.04-1.773 2.065-1.292 1.997-.79 1.844-.333 1.669 .187 1.407 .639 1.061 1.061 .946 1.201 .704 1.28 .53 1.28 .346 1.28 .127 1.199 0 1.061-.131 .918-.229 .73-.22 .53-.21 .321-.133 .161 0 0" fill="#dbf3ff"/>
<path transform="matrix(2,0,0,-2,92.9788,93.284)" d="M0 0C.036-.037 .07-.076 .105-.114 .155-.166 .001 .035 .095-.102 .15-.182 .193-.266 .239-.35 .314-.488 .182-.186 .233-.334 .248-.376 .263-.417 .275-.459 .288-.502 .3-.545 .309-.588 .316-.615 .341-.804 .328-.663 .314-.524 .328-.689 .33-.717 .333-.769 .335-.821 .334-.872 .333-.917 .329-.961 .328-1.005 .323-1.148 .362-.83 .332-.981 .315-1.068 .296-1.154 .269-1.238 .26-1.266 .25-1.294 .239-1.321 .253-1.289 .267-1.256 .281-1.224 .248-1.265 .228-1.335 .202-1.382H1.497C1.328-1.155 1.172-.918 1.032-.672 .962-.548 .896-.423 .834-.296 .803-.232 .773-.168 .744-.103 .729-.071 .715-.038 .701-.006 .738-.095 .746-.114 .725-.063 .523 .461 .37 .993 .291 1.549 .266 1.722 .089 1.914-.054 1.998-.214 2.092-.451 2.132-.632 2.073-.813 2.014-.988 1.902-1.08 1.729-1.181 1.538-1.186 1.362-1.155 1.151-.987-.03-.51-1.183 .202-2.139 .365-2.358 .562-2.511 .85-2.511 1.109-2.511 1.371-2.369 1.497-2.139 2.064-1.109 1.89 .222 1.061 1.061 .784 1.34 .273 1.358 0 1.061-.276 .76-.295 .298 0 0" fill="#dbf3ff"/>
<path transform="matrix(2,0,0,-2,92.3236,100.130397)" d="M0 0C2.05-6.3 4.341-12.518 6.868-18.642 7.232-19.522 8.684-19.137 8.315-18.244 5.787-12.12 3.496-5.901 1.446 .399 1.149 1.313-.3 .922 0 0" fill="#6b766a"/>
<path transform="matrix(2,0,0,-2,91.082,100.717998)" d="M0 0C2.673-6.795 5.346-13.59 8.019-20.385 8.368-21.273 9.82-20.886 9.465-19.986 6.792-13.191 4.119-6.396 1.446 .399 1.097 1.287-.354 .9 0 0" fill="#6b766a"/>
<path transform="matrix(2,0,0,-2,42.7922,148.55699)" d="M0 0C-.683-.467-.984-1.403-.688-2.183-.365-3.034 .521-3.433 1.393-3.258 1.811-3.175 2.186-2.936 2.442-2.597 2.733-2.21 2.842-1.73 2.928-1.263 2.969-1.042 3.005-.818 3.07-.602 3.083-.561 3.096-.52 3.11-.479 3.119-.456 3.128-.432 3.136-.409 3.158-.351 3.116-.453 3.141-.396 3.183-.3 3.232-.207 3.289-.118 3.297-.106 3.372 0 3.335-.047 3.364-.01 3.395 .025 3.428 .059 3.461 .092 3.495 .124 3.531 .153 3.479 .111 3.577 .181 3.595 .191 3.612 .201 3.727 .247 3.66 .225 3.704 .24 3.748 .252 3.794 .262 3.728 .247 3.832 .265 3.858 .266 3.878 .266 3.898 .266 3.918 .265 3.931 .264 4.013 .253 3.956 .263 3.903 .272 3.965 .26 3.977 .256 4 .25 4.023 .245 4.046 .237 4.064 .232 4.081 .225 4.099 .218 4.012 .249 4.093 .218 4.111 .208 4.144 .19 4.175 .169 4.206 .149 4.263 .112 4.208 .146 4.199 .155 4.22 .135 4.242 .117 4.264 .097 4.296 .065 4.325 .032 4.355-.001 4.365-.013 4.374-.025 4.384-.036 4.33 .031 4.393-.051 4.399-.06 4.454-.14 4.502-.224 4.545-.31 4.555-.33 4.565-.35 4.574-.37 4.578-.378 4.615-.46 4.596-.417 4.578-.375 4.606-.441 4.61-.45 4.62-.477 4.63-.503 4.64-.53 4.675-.628 4.706-.726 4.733-.826 4.761-.931 4.785-1.038 4.806-1.145 4.815-1.194 4.824-1.244 4.832-1.294 4.835-1.316 4.838-1.338 4.841-1.359 4.832-1.292 4.841-1.36 4.844-1.389 4.867-1.59 5-1.764 5.219-1.764 5.404-1.764 5.618-1.591 5.594-1.389 5.55-1.006 5.478-.627 5.339-.267 5.204 .083 5.022 .44 4.729 .685 4.41 .952 4.023 1.065 3.612 .988 3.183 .908 2.842 .591 2.622 .229 2.392-.148 2.296-.571 2.217-1 2.175-1.225 2.134-1.451 2.069-1.671 2.04-1.768 2.01-1.852 1.98-1.914 1.956-1.965 1.93-2.014 1.902-2.062 1.891-2.08 1.88-2.097 1.868-2.115 1.869-2.115 1.795-2.214 1.832-2.168 1.808-2.198 1.781-2.227 1.754-2.255 1.738-2.27 1.721-2.285 1.705-2.3 1.698-2.307 1.645-2.352 1.68-2.324 1.711-2.298 1.669-2.332 1.665-2.335 1.647-2.347 1.629-2.36 1.61-2.372 1.568-2.399 1.525-2.422 1.481-2.445 1.471-2.45 1.408-2.479 1.45-2.461 1.492-2.442 1.428-2.469 1.418-2.472 1.381-2.485 1.344-2.498 1.307-2.508 1.264-2.52 1.221-2.53 1.177-2.539 1.155-2.543 1.133-2.547 1.111-2.55 1.166-2.542 1.127-2.547 1.094-2.549 1.01-2.553 .928-2.551 .843-2.548 .771-2.546 .827-2.548 .843-2.55 .821-2.547 .799-2.543 .777-2.539 .728-2.529 .68-2.518 .632-2.503 .595-2.492 .558-2.48 .522-2.466 .59-2.491 .483-2.447 .461-2.436 .422-2.415 .384-2.393 .347-2.369 .329-2.356 .31-2.344 .293-2.331 .335-2.362 .299-2.335 .278-2.316 .242-2.282 .208-2.245 .173-2.209 .169-2.206 .134-2.164 .16-2.196 .189-2.233 .136-2.162 .131-2.155 .104-2.114 .079-2.071 .057-2.028 .047-2.008 .038-1.989 .029-1.969 .011-1.93 .044-2.02 .024-1.953 .01-1.905-.006-1.86-.018-1.812-.023-1.791-.047-1.651-.037-1.734-.049-1.636-.051-1.536-.044-1.437-.043-1.416-.04-1.394-.038-1.372-.043-1.426-.042-1.391-.035-1.357-.025-1.308-.015-1.26-.002-1.212 .01-1.17 .025-1.129 .039-1.087 .061-1.02 .045-1.071 .039-1.085 .052-1.055 .066-1.026 .082-.997 .102-.958 .124-.921 .148-.884 .16-.866 .173-.848 .185-.83 .144-.889 .187-.829 .197-.817 .23-.78 .263-.744 .299-.711 .315-.696 .332-.682 .349-.668 .3-.71 .36-.66 .379-.648 .546-.533 .62-.318 .513-.135 .416 .031 .168 .115 0 0" fill="#090a04"/>
<path transform="matrix(2,0,0,-2,40.529,142.83679)" d="M0 0C1.36-.103 2.721-.206 4.081-.309 4.277-.324 4.465-.126 4.456 .066 4.446 .282 4.291 .425 4.081 .441 2.721 .544 1.36 .647 0 .75-.196 .765-.384 .567-.375 .375-.365 .159-.21 .016 0 0" fill="#090a04"/>
<path transform="matrix(2,0,0,-2,40.9112,141.996)" d="M0 0C-.073-.056 .032 .024 .045 .034 .077 .058 .109 .082 .142 .106 .207 .154 .272 .202 .338 .249 .47 .342 .604 .433 .74 .522 1.006 .696 1.28 .86 1.559 1.013 1.839 1.166 2.124 1.308 2.414 1.439 2.488 1.472 2.562 1.504 2.636 1.537 2.676 1.553 2.674 1.552 2.631 1.534 2.649 1.542 2.668 1.55 2.687 1.558 2.724 1.573 2.762 1.588 2.799 1.603 2.949 1.664 3.101 1.721 3.253 1.776 3.437 1.842 3.581 2.034 3.515 2.237 3.456 2.418 3.251 2.57 3.054 2.499 2.061 2.143 1.11 1.673 .234 1.086-.028 .91-.281 .723-.53 .53-.601 .476-.64 .349-.64 .265-.64 .173-.599 .063-.53 0-.459-.066-.365-.114-.265-.11-.159-.105-.083-.064 0 0" fill="#090a04"/>
<path transform="matrix(2,0,0,-2,43.8584,139.09619)" d="M0 0V-1.532C0-1.628 .042-1.729 .11-1.797 .175-1.862 .282-1.911 .375-1.907 .578-1.898 .75-1.742 .75-1.532V0C.75 .096 .708 .197 .64 .265 .575 .33 .468 .379 .375 .375 .172 .366 0 .21 0 0" fill="#090a04"/>
<path transform="matrix(2,0,0,-2,34.9082,134.7936)" d="M0 0C2.027 .073 4.043 .432 5.968 1.072 6.16 1.136 6.285 1.331 6.23 1.533 6.178 1.721 5.961 1.859 5.768 1.795 3.904 1.175 1.963 .821 0 .75-.202 .743-.375 .583-.375 .375-.375 .177-.203-.007 0 0" fill="#090a04"/>
<path transform="matrix(2,0,0,-2,34.5842,134.1788)" d="M0 0C.123 .437 .041 .866-.002 1.306-.011 1.396-.018 1.486-.017 1.577-.017 1.609-.015 1.642-.013 1.674-.012 1.69-.009 1.706-.008 1.723-.006 1.767-.022 1.667-.005 1.737 .011 1.807 .027 1.875 .049 1.944 .054 1.959 .06 1.974 .066 1.99 .064 1.984 .041 1.936 .06 1.974 .079 2.012 .098 2.05 .12 2.086 .134 2.109 .197 2.173 .143 2.122 .164 2.142 .185 2.165 .205 2.186 .21 2.192 .249 2.223 .213 2.195 .174 2.165 .224 2.202 .235 2.208 .248 2.215 .261 2.222 .273 2.23 .312 2.252 .293 2.231 .266 2.226 .284 2.229 .307 2.238 .324 2.243 .33 2.244 .377 2.249 .341 2.246 .302 2.243 .427 2.24 .403 2.243 .475 2.233 .535 2.206 .62 2.157 .937 1.977 1.194 1.74 1.459 1.468 1.768 1.153 1.993 .857 2.22 .479 2.391 .191 2.804 .267 2.905 .568 2.952 .707 3.002 .845 3.058 .98 3.038 .931 3.085 1.039 3.084 1.037 3.097 1.067 3.111 1.098 3.125 1.128 3.156 1.194 3.188 1.26 3.221 1.325 3.354 1.586 3.506 1.838 3.674 2.077 3.768 2.211 3.81 2.267 3.906 2.383 3.999 2.496 4.096 2.605 4.197 2.711 4.399 2.924 4.617 3.12 4.847 3.302 5.006 3.428 4.978 3.701 4.847 3.832 4.69 3.989 4.476 3.958 4.316 3.832 3.322 3.047 2.584 1.966 2.182 .768 2.41 .797 2.639 .827 2.867 .857 2.635 1.245 2.359 1.61 2.048 1.938 1.745 2.257 1.397 2.571 1.017 2.794 .586 3.046 .072 3.072-.314 2.727-.607 2.464-.734 2.055-.763 1.674-.8 1.18-.594 .657-.723 .199-.777 .011-.658-.217-.461-.262-.262-.307-.057-.202 0 0" fill="#090a04"/>
<path transform="matrix(2,0,0,-2,34.4726,123.048)" d="M0 0C.73-.235 1.499-.474 2.276-.42 2.954-.373 3.598-.103 4.031 .437 4.228 .684 4.391 .966 4.454 1.279 4.523 1.624 4.486 1.958 4.343 2.279 4.113 2.792 3.604 3.108 3.074 3.239 2.444 3.394 1.788 3.35 1.153 3.262 .958 3.235 .834 2.976 .891 2.801 .96 2.587 1.143 2.51 1.352 2.539 1.421 2.548 1.276 2.53 1.365 2.54 1.394 2.544 1.424 2.548 1.453 2.551 1.513 2.558 1.573 2.564 1.633 2.569 1.755 2.58 1.877 2.587 2 2.59 2.123 2.594 2.246 2.593 2.368 2.587 2.425 2.584 2.481 2.58 2.537 2.574 2.567 2.571 2.597 2.568 2.627 2.565 2.641 2.563 2.677 2.551 2.628 2.565 2.568 2.581 2.644 2.562 2.653 2.56 2.768 2.542 2.881 2.517 2.992 2.483 3.042 2.468 3.091 2.45 3.14 2.433 3.221 2.403 3.091 2.457 3.149 2.429 3.173 2.417 3.198 2.406 3.222 2.394 3.27 2.369 3.317 2.342 3.362 2.313 3.381 2.3 3.399 2.286 3.418 2.274 3.459 2.248 3.361 2.323 3.396 2.291 3.407 2.281 3.42 2.272 3.431 2.262 3.471 2.227 3.509 2.19 3.544 2.15 3.556 2.137 3.594 2.078 3.567 2.127 3.537 2.178 3.588 2.094 3.598 2.08 3.626 2.036 3.652 1.991 3.674 1.945 3.676 1.942 3.696 1.907 3.695 1.9 3.695 1.898 3.669 1.972 3.682 1.93 3.693 1.896 3.706 1.863 3.715 1.828 3.723 1.799 3.729 1.769 3.736 1.739 3.752 1.669 3.732 1.808 3.737 1.736 3.741 1.672 3.744 1.608 3.739 1.544 3.739 1.531 3.737 1.518 3.736 1.506 3.732 1.446 3.741 1.528 3.74 1.529 3.745 1.524 3.727 1.461 3.725 1.453 3.711 1.389 3.692 1.327 3.669 1.266 3.666 1.257 3.655 1.239 3.655 1.229 3.655 1.231 3.686 1.295 3.667 1.258 3.653 1.23 3.641 1.202 3.626 1.174 3.595 1.115 3.56 1.057 3.522 1.001 3.507 .979 3.491 .957 3.475 .935 3.445 .893 3.518 .985 3.483 .946 3.474 .936 3.466 .925 3.457 .915 3.415 .866 3.37 .819 3.324 .774 3.279 .731 3.231 .679 3.178 .647 3.239 .685 3.182 .651 3.153 .631 3.127 .612 3.099 .594 3.072 .577 3.017 .543 2.961 .511 2.903 .483 2.895 .479 2.828 .454 2.828 .448 2.829 .459 2.895 .474 2.841 .454 2.824 .448 2.807 .441 2.79 .435 2.724 .412 2.656 .393 2.588 .377 2.553 .369 2.517 .362 2.481 .355 2.457 .351 2.434 .347 2.41 .343 2.381 .338 2.362 .338 2.402 .341 2.215 .324 2.029 .318 1.842 .331 1.793 .334 1.745 .338 1.696 .344 1.678 .346 1.66 .348 1.642 .35 1.527 .363 1.68 .342 1.615 .354 1.518 .371 1.421 .386 1.324 .406 .943 .486 .57 .604 .199 .723 .013 .783-.218 .653-.262 .461-.309 .256-.2 .065 0 0" fill="#090a04"/>
<path transform="matrix(2,0,0,-2,30.3524,111.351398)" d="M0 0C-.029 .171-.056 .342-.078 .513-.07 .452-.086 .573-.086 .572-.091 .611-.096 .651-.1 .691-.11 .776-.12 .862-.128 .949-.162 1.286-.185 1.625-.197 1.964-.22 2.643-.198 3.322-.134 3.998-.115 4.194-.319 4.381-.509 4.373-.728 4.363-.863 4.208-.884 3.998-1.018 2.597-.957 1.187-.723-.199-.69-.393-.441-.519-.262-.461-.052-.394 .035-.208 0 0" fill="#090a04"/>
<path transform="matrix(2,0,0,-2,29.2908,108.21939)" d="M0 0C2.207 .094 4.415-.12 6.561-.643 7.03-.758 7.23-.035 6.76 .08 4.552 .619 2.271 .847 0 .75-.202 .741-.375 .584-.375 .375-.375 .179-.203-.009 0 0" fill="#090a04"/>
<path transform="matrix(2,0,0,-2,41.733,102.61459)" d="M0 0C-1.253 .993-2.506 1.987-3.758 2.98-3.814 2.772-3.869 2.563-3.924 2.354-3.598 2.47-3.266 2.568-2.928 2.647-2.754 2.687-2.578 2.723-2.401 2.754-2.313 2.769-2.224 2.782-2.135 2.796-2.056 2.807-2.169 2.792-2.082 2.803-2.038 2.808-1.993 2.814-1.949 2.818-1.254 2.896-.552 2.893 .142 2.812 .338 2.789 .526 3.001 .517 3.187 .507 3.41 .352 3.537 .142 3.562-1.29 3.729-2.765 3.559-4.123 3.077-4.249 3.032-4.348 2.948-4.385 2.815-4.417 2.698-4.39 2.531-4.289 2.45-3.036 1.457-1.783 .463-.53-.53-.377-.652-.148-.691 0-.53 .124-.395 .164-.13 0 0" fill="#090a04"/>
<path transform="matrix(2,0,0,-2,39.2386,99.5684)" d="M0 0C-.017 .064-.03 .129-.039 .195L-.026 .096C-.043 .231-.042 .368-.025 .504L-.038 .404C-.019 .543 .017 .678 .071 .808 .059 .778 .046 .748 .034 .718 .075 .815 .125 .907 .185 .993 .212 1.037 .227 1.083 .23 1.133 .241 1.183 .239 1.233 .223 1.282 .199 1.369 .132 1.464 .051 1.507-.036 1.553-.142 1.576-.238 1.544-.268 1.532-.298 1.519-.328 1.507-.384 1.473-.429 1.428-.463 1.372-.513 1.299-.558 1.221-.595 1.14-.644 1.033-.689 .923-.72 .809-.751 .694-.768 .575-.78 .457-.789 .368-.791 .279-.785 .19-.776 .059-.757-.073-.723-.199-.699-.29-.632-.376-.551-.423-.471-.471-.352-.49-.262-.461-.171-.432-.084-.376-.038-.289 .01-.199 .027-.1 0 0" fill="#090a04"/>
<path transform="matrix(2,0,0,-2,33.9998,88.210597)" d="M0 0 3.582-1.513C3.679-1.554 3.765-1.58 3.871-1.551 3.958-1.527 4.053-1.46 4.095-1.379 4.18-1.218 4.154-.947 3.961-.866L.379 .648C.281 .689 .196 .715 .09 .685 .003 .661-.092 .594-.135 .513-.219 .353-.193 .082 0 0" fill="#090a04"/>
<path transform="matrix(2,0,0,-2,38.6404,89.7416)" d="M0 0C.426 1.021 .851 2.042 1.277 3.064 1.312 3.147 1.282 3.279 1.239 3.353 1.194 3.43 1.104 3.505 1.015 3.525 .919 3.547 .811 3.542 .726 3.487 .638 3.431 .594 3.359 .554 3.263 .128 2.242-.298 1.221-.723 .199-.758 .116-.729-.016-.685-.09-.64-.167-.551-.242-.461-.262-.365-.284-.258-.279-.172-.224-.085-.168-.04-.095 0 0" fill="#090a04"/>
<path transform="matrix(2,0,0,-2,37.9702,83.1654)" d="M0 0C.483 0 .483 .75 0 .75-.483 .75-.483 0 0 0" fill="#090a04"/>
<path transform="matrix(2,0,0,-2,37.817,83.0066)" d="M0 0C.762-.266 1.524-.533 2.286-.799 2.472-.864 2.705-.726 2.747-.538 2.795-.328 2.684-.146 2.486-.076L.199 .723C.014 .788-.219 .65-.262 .461-.31 .252-.199 .069 0 0" fill="#090a04"/>
<path transform="matrix(2,0,0,-2,39.6362,76.42159)" d="M0 0C1.277-.765 2.554-1.53 3.831-2.295 4-2.396 4.251-2.338 4.345-2.161 4.44-1.979 4.39-1.755 4.21-1.648 2.933-.882 1.656-.117 .379 .648 .21 .749-.041 .691-.135 .513-.23 .332-.18 .108 0 0" fill="#090a04"/>
<path transform="matrix(2,0,0,-2,41.8164,67.547199)" d="M0 0C.752-1.055 1.718-1.948 2.839-2.6 3.147-2.779 3.467-2.939 3.795-3.079 3.892-3.12 3.978-3.146 4.084-3.117 4.171-3.093 4.266-3.025 4.308-2.944 4.393-2.783 4.367-2.513 4.174-2.431 3.613-2.192 3.078-1.894 2.58-1.543 2.519-1.5 2.459-1.456 2.399-1.412 2.371-1.391 2.344-1.37 2.316-1.349 2.272-1.317 2.364-1.387 2.321-1.353 2.302-1.338 2.282-1.323 2.263-1.307 2.142-1.212 2.024-1.113 1.909-1.012 1.683-.812 1.466-.6 1.262-.377 1.148-.253 1.038-.126 .931 .005 .903 .04 .875 .074 .847 .109 .835 .125 .823 .141 .811 .156 .776 .2 .864 .086 .806 .163 .752 .234 .699 .306 .648 .379 .534 .538 .315 .63 .135 .513-.024 .411-.122 .171 0 0" fill="#090a04"/>
<path transform="matrix(2,0,0,-2,47.0904,64.196399)" d="M0 0C-.218-.493-.436-.987-.653-1.48-.762-1.727-.881-1.972-.977-2.223-1.06-2.439-1.099-2.676-1.054-2.904-1-3.183-.767-3.411-.488-3.459-.219-3.505 .028-3.42 .275-3.323 .744-3.14 1.205-2.933 1.651-2.7 2.143-2.442 2.618-2.153 3.073-1.835 3.233-1.723 3.323-1.502 3.207-1.322 3.105-1.162 2.866-1.067 2.694-1.187 1.958-1.701 1.173-2.132 .35-2.489 .292-2.514 .432-2.456 .338-2.494 .309-2.506 .28-2.518 .251-2.53 .203-2.55 .154-2.57 .105-2.589 .005-2.628-.095-2.67-.199-2.7-.233-2.71-.296-2.736-.332-2.731-.249-2.742-.292-2.725-.324-2.725-.406-2.726-.313-2.728-.314-2.732-.322-2.73-.331-2.728-.339-2.726-.378-2.714-.371-2.718-.32-2.738-.323-2.74-.367-2.71-.365-2.711-.351-2.721-.337-2.731-.323-2.741-.351-2.713-.345-2.722-.307-2.769-.308-2.764-.334-2.719-.338-2.716-.331-2.733-.323-2.75-.316-2.767-.32-2.753-.324-2.74-.327-2.726-.345-2.669-.319-2.753-.323-2.762-.312-2.739-.323-2.677-.322-2.649-.319-2.566-.343-2.737-.322-2.655-.318-2.635-.314-2.615-.309-2.596-.297-2.549-.283-2.502-.266-2.457-.26-2.438-.252-2.419-.245-2.401-.214-2.318-.289-2.498-.242-2.394-.218-2.342-.196-2.289-.173-2.237-.122-2.121-.071-2.006-.02-1.89 .203-1.386 .425-.882 .648-.379 .727-.2 .706 .033 .513 .135 .35 .221 .085 .192 0 0" fill="#090a04"/>
<path transform="matrix(2,0,0,-2,49.783,55.594995)" d="M0 0C-.205-.816-.187-1.752 .267-2.485 .474-2.821 .766-3.106 1.128-3.269 1.466-3.421 1.841-3.503 2.212-3.46 2.597-3.416 2.967-3.276 3.242-2.993 3.586-2.638 3.704-2.15 3.74-1.671 3.803-.818 3.625 .148 2.903 .69 2.343 1.111 1.37 1.109 .906 .537 .842 .457 .784 .378 .743 .284 .701 .189 .676 .1 .705-.005 .729-.092 .796-.186 .877-.229 1.04-.315 1.306-.286 1.39-.094 1.404-.062 1.42-.031 1.438-.001 1.446 .014 1.456 .028 1.465 .042 1.501 .099 1.403-.031 1.447 .02 1.466 .041 1.484 .062 1.504 .081 1.516 .093 1.528 .104 1.541 .115 1.61 .175 1.478 .074 1.53 .107 1.583 .141 1.636 .169 1.691 .197 1.572 .138 1.671 .187 1.706 .197 1.741 .209 1.778 .218 1.815 .225 1.832 .229 1.849 .232 1.866 .235 1.936 .247 1.765 .225 1.836 .23 1.866 .232 1.895 .235 1.924 .236 1.96 .237 1.996 .236 2.031 .234 2.07 .232 2.189 .206 2.057 .235 2.124 .22 2.192 .209 2.258 .188 2.29 .178 2.32 .165 2.351 .154 2.224 .197 2.357 .149 2.391 .13 2.416 .116 2.442 .1 2.467 .084 2.481 .074 2.495 .062 2.51 .053 2.418 .109 2.465 .089 2.49 .068 2.557 .012 2.615-.053 2.671-.119 2.723-.18 2.622-.047 2.667-.113 2.677-.129 2.688-.144 2.698-.159 2.721-.193 2.742-.228 2.763-.263 2.785-.302 2.805-.341 2.824-.381 2.832-.398 2.84-.415 2.848-.432 2.859-.458 2.854-.446 2.832-.394 2.837-.408 2.843-.422 2.848-.436 2.912-.604 2.951-.778 2.98-.954 2.988-1.008 2.968-.854 2.977-.935 2.979-.958 2.982-.981 2.985-1.004 2.989-1.05 2.993-1.096 2.995-1.142 3.001-1.234 3.002-1.327 3.001-1.419 3-1.507 2.996-1.596 2.989-1.684 2.986-1.719 2.994-1.808 2.973-1.837 2.976-1.834 2.988-1.744 2.976-1.814 2.97-1.848 2.965-1.882 2.958-1.915 2.94-2.007 2.916-2.097 2.884-2.185L2.875-2.209C2.86-2.247 2.863-2.24 2.884-2.19 2.886-2.204 2.858-2.245 2.851-2.258 2.828-2.303 2.802-2.347 2.774-2.389 2.763-2.404 2.751-2.419 2.741-2.434 2.801-2.341 2.774-2.392 2.754-2.416 2.73-2.443 2.705-2.469 2.679-2.494 2.658-2.514 2.633-2.532 2.612-2.553 2.691-2.477 2.658-2.518 2.631-2.537 2.612-2.551 2.592-2.564 2.572-2.576 2.547-2.592 2.521-2.606 2.495-2.62 2.461-2.638 2.347-2.673 2.471-2.634 2.402-2.656 2.336-2.682 2.265-2.698 2.235-2.705 2.189-2.722 2.158-2.718 2.157-2.718 2.263-2.706 2.203-2.712 2.185-2.713 2.167-2.715 2.148-2.717 2.075-2.722 2-2.723 1.926-2.719 1.889-2.716 1.852-2.711 1.815-2.708 1.948-2.718 1.837-2.711 1.803-2.704 1.723-2.689 1.644-2.668 1.566-2.642 1.536-2.632 1.507-2.62 1.478-2.609 1.41-2.583 1.564-2.649 1.498-2.617 1.481-2.609 1.464-2.601 1.447-2.593 1.38-2.56 1.314-2.522 1.252-2.48 1.237-2.469 1.222-2.458 1.207-2.447 1.159-2.414 1.236-2.47 1.238-2.472 1.212-2.446 1.18-2.424 1.153-2.398 1.126-2.373 1.099-2.347 1.074-2.319 1.046-2.288 1.019-2.239 .985-2.215 .996-2.229 1.006-2.242 1.016-2.255 1.007-2.243 .998-2.231 .989-2.219 .972-2.195 .955-2.17 .939-2.145 .914-2.107 .891-2.069 .869-2.029 .844-1.984 .82-1.937 .798-1.89 .794-1.88 .766-1.811 .79-1.873 .814-1.936 .779-1.845 .775-1.834 .74-1.743 .712-1.649 .689-1.554 .676-1.502 .665-1.45 .656-1.398 .652-1.375 .648-1.353 .645-1.33 .632-1.258 .654-1.418 .646-1.339 .624-1.139 .619-.939 .633-.738 .637-.684 .642-.63 .648-.576 .652-.544 .676-.485 .647-.584 .653-.562 .654-.538 .657-.515 .675-.409 .697-.304 .723-.199 .771-.009 .662 .216 .461 .262 .267 .306 .051 .204 0 0" fill="#090a04"/>
</g>
</g>
</svg>
