<svg xmlns="http://www.w3.org/2000/svg" xmlns:xlink="http://www.w3.org/1999/xlink" xmlns:inkscape="http://www.inkscape.org/namespaces/inkscape" version="1.1" width="170.0788" height="170.0788" viewBox="0 0 170.0788 170.0788">
<defs>
<clipPath id="clip_1">
<path transform="matrix(2,0,0,-2,0,170.0788)" d="M0 85.039H85.039V0H0Z"/>
</clipPath>
</defs>
<g inkscape:groupmode="layer" inkscape:label="&#x30EC;&#x30A4;&#x30E4;&#x30FC; 1">
<g clip-path="url(#clip_1)">
<path transform="matrix(2,0,0,-2,74.3066,65.272998)" d="M0 0C-1.161 1.31-.615 3.277-.189 4.781 .289 6.475 1.005 7.804 1.944 9.273 2.824 10.651 3.076 11.92 3.08 13.54 3.085 15.421 3.64 16.934 5.161 18.113 5.784 18.595 5.098 19.542 4.431 19.366 1.169 18.508-.506 14.758 .843 11.724 1.162 11.007 2.226 11.417 2.241 12.103 2.304 14.99 4.341 17.73 7.185 18.44 9.966 19.134 13.042 17.551 14.282 15.006 14.997 13.536 14.907 11.822 15.469 10.292 16.087 8.61 16.801 7.126 16.657 5.28 16.515 3.473 15.822 1.687 15.095 .042 14.535-1.227 13.815-2.632 12.31-2.851 11.358-2.989 11.763-4.435 12.708-4.297 15.513-3.89 16.628-.42 17.412 1.876 17.96 3.481 18.327 5.195 18.119 6.895 17.914 8.577 17.037 10.019 16.611 11.636 16.215 13.14 16.207 14.645 15.434 16.035 14.795 17.183 13.837 18.154 12.731 18.856 10.534 20.25 7.772 20.506 5.409 19.381 2.627 18.057 .808 15.164 .741 12.103 1.207 12.229 1.672 12.355 2.138 12.481 1.173 14.653 2.583 17.328 4.83 17.92L4.1 19.173C2.728 18.11 1.835 16.564 1.632 14.836 1.505 13.759 1.713 12.648 1.426 11.591 1.149 10.566 .408 9.716-.147 8.834-1.128 7.274-1.705 5.368-2.025 3.562-2.32 1.892-2.225 .253-1.061-1.061-.419-1.784 .639-.72 0 0" fill="#9f8a58"/>
<path transform="matrix(2,0,0,-2,98.5828,73.2262)" d="M0 0C-.255-.17-.511-.34-.766-.51-.854-.558-.924-.622-.977-.704-1.043-.776-1.088-.861-1.111-.959-1.142-1.058-1.146-1.158-1.124-1.258-1.12-1.358-1.09-1.45-1.035-1.537-.932-1.697-.778-1.838-.587-1.881-.52-1.89-.454-1.899-.388-1.908-.252-1.908-.126-1.873-.009-1.806 .246-1.635 .502-1.465 .757-1.295 .844-1.248 .915-1.184 .967-1.102 1.034-1.03 1.079-.945 1.102-.847 1.133-.747 1.137-.648 1.115-.548 1.111-.448 1.081-.355 1.026-.269 .923-.109 .769 .032 .578 .076 .511 .085 .445 .093 .379 .102 .243 .102 .117 .068 0 0" fill="#9f8a58"/>
<path transform="matrix(2,0,0,-2,97.4164,69.666797)" d="M0 0C-1-.152-1.266-1.47-.637-2.163 .176-3.058 1.764-2.641 2.717-2.257 4.023-1.731 4.746-.869 5.671 .128 6.233 .733 6.92 .794 7.71 .795 8.659 .795 9.608 .758 10.556 .739 12.324 .703 14.091 .668 15.858 .632 16.225 .625 16.778 .71 17.138 .606 17.589 .476 17.612 .24 17.598-.208 17.57-1.049 17.422-1.876 17.196-2.686 16.389-5.578 14.676-8.734 12.369-10.699 9.73-12.947 6.056-13.365 2.743-13.734 1.794-13.839 1.783-15.341 2.743-15.234 5.618-14.913 8.566-14.566 11.188-13.255 13.894-11.901 15.704-9.46 17.09-6.841 17.822-5.459 18.454-3.993 18.799-2.464 19.05-1.357 19.539 .609 18.687 1.563 18.351 1.94 17.845 2.06 17.363 2.097 16.441 2.167 15.502 2.139 14.578 2.158 12.75 2.195 10.922 2.231 9.094 2.268 7.51 2.3 5.775 2.48 4.611 1.189 4.084 .605 3.676 0 3.001-.438 2.627-.68 2.222-.869 1.795-.997 1.663-1.037 1.528-1.075 1.393-1.104 1.25-1.141 1.104-1.163 .957-1.17 .736-1.162 .55-1.254 .399-1.446 1.35-1.302 .946 .144 0 0" fill="#9f8a58"/>
<path transform="matrix(2,0,0,-2,111.7094,96.9506)" d="M0 0C-2.901-.439-4.33-4.038-5.241-6.439-6.394-9.475-6.903-12.775-6.763-16.018-6.693-17.64-6.465-19.264-6.074-20.84-5.878-21.63-5.64-22.409-5.359-23.172-5.086-23.918-4.138-25.378-4.924-26.13-5.491-26.673-6.606-26.904-7.35-27.1-8.195-27.322-9.061-27.437-9.935-27.45-11.838-27.478-13.672-27.014-15.344-26.109-15.809-25.858-16.261-26.105-16.445-26.558-17.069-28.09-17.615-29.646-18.084-31.233-18.359-32.16-16.911-32.557-16.638-31.632-16.168-30.045-15.623-28.489-14.999-26.956-15.366-27.106-15.733-27.255-16.101-27.405-13.192-28.978-9.747-29.391-6.564-28.438-5.403-28.09-3.55-27.529-3.052-26.288-2.751-25.537-3.075-24.786-3.371-24.1-3.749-23.223-4.088-22.339-4.36-21.422-5.401-17.911-5.57-14.141-4.856-10.548-4.499-8.751-3.94-6.989-3.152-5.334-2.414-3.786-1.486-1.732 .399-1.446 1.35-1.302 .946 .143 0 0" fill="#9f8a58"/>
<path transform="matrix(2,0,0,-2,71.1816,66.338199)" d="M0 0C.083-.851 .166-1.703 .249-2.554 .269-2.757 .32-2.935 .469-3.084 .599-3.214 .812-3.312 .999-3.304 1.373-3.287 1.79-2.972 1.749-2.554 1.666-1.703 1.583-.851 1.5 0 1.48 .204 1.43 .381 1.28 .53 1.15 .66 .937 .758 .75 .75 .376 .733-.041 .418 0 0" fill="#9f8a58"/>
<path transform="matrix(2,0,0,-2,72.4536,66.17799)" d="M0 0C-4.595 1.351-10.301 2.103-13.829-1.916-16.644-5.124-15.803-8.983-12.996-11.821-10.073-14.778-5.902-17.211-7.204-22.061-7.912-24.698-9.808-26.906-12.006-28.455-13.101-29.227-14.278-29.803-15.52-30.294-16.381-30.635-17.368-30.999-17.884-31.827-19.246-34.016-16.363-34.929-14.853-35.357-13.552-35.726-12.007-36.241-11.231-37.441-10.613-38.394-10.566-40.196-11.805-40.686-12.327-40.892-12.641-41.766-11.985-42.057-7.751-43.934-3.412-45.541 1.028-46.857 1.955-47.132 2.352-45.685 1.427-45.411-2.888-44.132-7.113-42.586-11.228-40.761-11.287-41.218-11.347-41.675-11.407-42.132-9.838-41.512-9.136-39.974-9.358-38.332-9.62-36.395-11.159-35.153-12.876-34.446-13.828-34.053-14.84-33.89-15.802-33.54-18.009-32.736-14.893-31.675-14.165-31.363-11.897-30.392-9.8-28.903-8.212-27.006-5.521-23.793-4.34-19.256-6.975-15.65-9.037-12.829-13.31-10.934-14.062-7.298-14.621-4.594-12.549-2.129-10.205-1.082-7.114 .299-3.493-.537-.399-1.446 .529-1.719 .926-.272 0 0" fill="#9f8a58"/>
<path transform="matrix(2,0,0,-2,86.3482,67.8536)" d="M0 0C.155 2.756-.035 5.353-.436 8.07-.876 11.055-5.586 10.803-6.221 8.07-6.769 5.714-7.112 3.383-7.3 .974-7.572-2.511-2.381-2.937-1.407 .176L1.099 8.186C1.5 9.465 1.705 11.525 2.492 12.636 3.544 14.122 3.198 15.081 4.495 12.573 6.838 8.041 4.316 2.653 .646-.191 2.318-.632 3.989-1.074 5.661-1.515 4.657 1.071 6.45 4.083 6.915 6.589 7.355 8.955 7.385 11.256 7.156 13.651 6.793 17.445 .856 17.528 1.156 13.651 1.685 6.837-8.673-.263-2.11-7.201 .057-9.491 2.881-9.637 5.57-8.099 10.631-5.207 14.683-3.527 20.545-5.513 20.104-3.841 19.663-2.17 19.221-.498 14.648-4.587 9.174-6.96 3.055-7.445-.811-7.751-.796-13.108 3.055-13.445 10.106-14.061 20.429-15.407 22.824-6.696 23.357-4.757 21.865-2.973 19.931-2.899 16.084-2.751 12.282-2.903 8.47-3.467 6.849-3.707 2.968-5.32 1.499-4.924-.267-4.447 .428-4.319-.216-2.8-1.072-.782-2.777 .432-5.011 .501-7.453 .577-9.635 .241-12.128 .701-13.423 .94-14.619 1.195-15.945 1.033-21.405 .364-22.975-5.411-20.165-9.614-16.835-14.595-9.362-18.495-3.448-18.429 .41-18.386 .42-12.386-3.448-12.429-6.415-12.462-8.76-11.223-11.167-9.603-12.564-8.663-13.13-8.489-13.402-6.666-13.783-4.124-13.079-5.406-11.205-5.777-10.09-5.998-9.012-6.193-7.863-6.1-7.335-6.058-6.017-5.473-5.629-5.647-5.819-5.562-5.105-7.915-4.669-8.614-2.896-11.453 .154-11.354 3.094-10.709 8.737-9.472 14.131-8.676 19.931-8.899 18.967-7.633 18.002-6.367 17.038-5.101 15.809-9.572 6.178-7.718 3.055-7.445V-13.445C10.841-12.828 17.638-9.95 23.464-4.741 25.247-3.147 24.149-.407 22.14 .273 16.145 2.304 9.732 1.724 4.34-1.677 3.726-2.07 3.127-2.484 2.542-2.919 1.829-1.652 1.773-.407 2.375 .818 2.763 2.355 4.076 3.808 4.833 5.161 6.363 7.896 7.404 10.46 7.156 13.651H1.156C1.51 9.956 .748 6.915-.205 3.397-.827 1.099-.999-.857-.125-3.11 .75-5.365 3.021-5.882 4.889-4.434 11.425 .632 14.046 12.011 7.815 18.459-1.759 28.364-5.594 6.881-7.193 1.771-5.229 1.505-3.264 1.239-1.3 .974-1.154 2.85-.862 4.642-.436 6.475H-6.221C-5.891 4.236-5.874 2.232-6 0-6.217-3.858-.216-3.846 0 0" fill="#9f8a58"/>
<path transform="matrix(2,0,0,-2,55.1174,83.418399)" d="M0 0C2.988-3.755 9.17-4.699 13.614-5.367 17.348-5.928 19.054-.317 15.209 .419 14.083 .634 13.273 .965 12.325 1.611 9.126 3.79 6.121-1.407 9.297-3.57 10.617-4.47 12.043-5.067 13.614-5.367 14.145-3.439 14.677-1.51 15.209 .419 11.876 .919 6.485 1.425 4.243 4.243 1.839 7.263-2.381 2.993 0 0" fill="#9f8a58"/>
<path transform="matrix(2,0,0,-2,72.674,85.9916)" d="M0 0C.427-.167 .853-.334 1.28-.502 1.679-.627 2.078-.645 2.476-.555 2.876-.537 3.247-.419 3.592-.199 4.214 .165 4.808 .878 4.97 1.594 5.145 2.362 5.108 3.224 4.668 3.905L4.199 4.512C3.825 4.884 3.383 5.141 2.875 5.284 2.448 5.451 2.022 5.618 1.595 5.786 1.196 5.911 .798 5.929 .399 5.839 0 5.821-.372 5.702-.717 5.483-1.339 5.119-1.932 4.406-2.095 3.69-2.27 2.922-2.232 2.06-1.793 1.379-1.637 1.176-1.48 .974-1.324 .772-.949 .4-.508 .143 0 0" fill="#9f8a58"/>
<path transform="matrix(2,0,0,-2,80.8678,37.698198)" d="M0 0C.17-.255 .34-.511 .511-.766 .699-1.116 .957-1.396 1.283-1.608 1.573-1.873 1.913-2.052 2.304-2.145 2.702-2.27 3.101-2.288 3.5-2.198 3.899-2.18 4.271-2.061 4.615-1.842 5.256-1.429 5.82-.814 5.994-.049L6.101 .748C6.099 1.29 5.963 1.794 5.691 2.262 5.521 2.518 5.351 2.773 5.181 3.028 4.992 3.378 4.735 3.658 4.408 3.87 4.118 4.135 3.778 4.314 3.388 4.407 2.989 4.532 2.59 4.55 2.192 4.461 1.792 4.442 1.421 4.324 1.076 4.105 .436 3.692-.128 3.077-.302 2.312-.338 2.046-.374 1.78-.41 1.514-.408 .973-.271 .468 0 0" fill="#9f8a58"/>
<path transform="matrix(2,0,0,-2,103.7312,85.32359)" d="M0 0C-2.945-2.054-5.386-4.576-7.265-7.643-5.538-8.653-3.811-9.662-2.084-10.672-.938-8.167 1.519-6.966 3.868-5.769 5.311-5.033 5.728-3.005 4.944-1.664 4.086-.197 2.288 .151 .839-.588-2.37-2.224-5.706-4.235-7.265-7.643-7.938-9.116-7.684-10.873-6.189-11.748-4.761-12.583-2.933-12.057-2.084-10.672-.762-8.514 .948-6.632 3.028-5.181 4.356-4.255 4.969-2.554 4.105-1.076 3.336 .237 1.336 .931 0 0" fill="#9f8a58"/>
<path transform="matrix(2,0,0,-2,84.7704,82.6166)" d="M0 0C-1.999-4.134-2.491-8.128-1.413-12.615-.902-14.743 2.107-15.606 3.601-13.939 3.975-13.521 5.645-10.326 4.963-10.809 4.518-11.123 5.56-11.239 6.295-11.416 7.232-11.641 7.78-11.69 8.789-11.635 7.925-10.13 7.062-8.625 6.198-7.121 2.907-14.713-1.611-22.864 2.561-30.951 4.331-34.384 9.51-31.353 7.741-27.923 4.851-22.318 9.135-15.325 11.379-10.149 12.21-8.232 11.296-5.496 8.789-5.635 6.318-5.771 4.655-3.923 2.169-5.298 .104-6.44 .691-8.208-.642-9.696 1.03-10.137 2.701-10.578 4.372-11.02 3.684-8.153 3.882-5.715 5.181-3.028 6.855 .433 1.683 3.479 0 0" fill="#9f8a58"/>
<path transform="matrix(2,0,0,-2,76.4936,97.476)" d="M0 0C.839-6.403 2.487-12.415 5.042-18.346 6.565-21.882 11.736-18.83 10.223-15.318 8.122-10.442 6.69-5.264 6 0 5.505 3.774-.501 3.823 0 0" fill="#9f8a58"/>
<path transform="matrix(2,0,0,-2,69.6056,97.956798)" d="M0 0C.715-5.967 1.774-11.847 3.265-17.67 4.222-21.408 10.01-19.824 9.05-16.075 7.695-10.781 6.651-5.428 6 0 5.546 3.786-.459 3.832 0 0" fill="#9f8a58"/>
<path transform="matrix(2,0,0,-2,65.1962,93.395)" d="M0 0C.091-2.695 .044-5.383-.141-8.074H5.859C5.42-4.365 4.642-1.056 1.491 1.263-.801 2.95-3.388 .175-2.916-2.125-2.371-4.78-1.71-7.402-.933-9.999 .173-13.689 5.965-12.117 4.853-8.404 4.075-5.807 3.415-3.185 2.87-.53L-1.537-3.917C-.437-4.727-.286-6.849-.141-8.074 .307-11.852 5.59-12.005 5.859-8.074 6.044-5.383 6.091-2.695 6 0 5.87 3.851-.13 3.868 0 0" fill="#9f8a58"/>
<path transform="matrix(2,0,0,-2,65.6232,112.6698)" d="M0 0C3.861 0 3.867 6 0 6-3.861 6-3.867 0 0 0" fill="#9f8a58"/>
<path transform="matrix(2,0,0,-2,77.2016,118.215)" d="M0 0C.08 .068 .16 .137 .239 .205-.202-.052-.643-.309-1.084-.566-.982-.543-.88-.519-.778-.495H-2.373C-3.134 .995-3.476 1.272-3.398 .338-3.406 .085-3.417-.169-3.431-.422-3.442-.592-3.494-1.143-3.496-1.155-3.626-1.936-3.767-2.282-4.238-2.692-5.459-3.758-5.328-5.844-4.238-6.935-3.026-8.147-1.22-8.003 .005-6.935 2.076-5.128 2.56-2.278 2.602 .338 2.628 1.938 2.221 3.562 .88 4.556-.764 5.775-2.735 5.534-4.243 4.243-5.474 3.188-5.326 1.083-4.243 0-3.022-1.22-1.234-1.057 0 0" fill="#9f8a58"/>
<path transform="matrix(2,0,0,-2,70.4148,107.5936)" d="M0 0C-.726-2.97-1.733-5.806-3.11-8.538-4.842-11.978 .332-15.019 2.071-11.566 3.675-8.382 4.939-5.059 5.786-1.595 6.703 2.155 .918 3.755 0 0" fill="#9f8a58"/>
<path transform="matrix(2,0,0,-2,62.5788,109.2316)" d="M0 0C.132-1.519-.252-2.894-1.151-4.127 .676-4.366 2.504-4.604 4.332-4.843 4.322-4.248 4.311-3.653 4.301-3.057 2.473-3.296 .646-3.535-1.182-3.774-1.06-4.055-.937-4.336-.814-4.617-.915-3.846-1.016-3.076-1.116-2.305-1.455-3.403-2.97-7.698-4.298-8.019-7.031-8.679-7.284-13.323-4.298-13.804 .279-14.543 4.805-15.323 9.06-17.242 12.298-18.702 15.108-20.067 18.667-20.52 18.401-18.556 18.135-16.592 17.869-14.627 14.607-15.343 11.726-16.375 8.777-14.292 7.488-13.382 6.792-12.338 5.005-12.491 .432-12.883 1.783-18.663 2.566-21.534 3.026-20.405 3.485-19.275 3.945-18.146 3.773-18.244 3.602-18.343 3.43-18.441H6.459C5.129-17.862 4.006-16.994 2.586-16.588 1.887-16.426 1.181-16.305 .468-16.225 .478-17.122 .594-17.298 .815-16.752 2.183-15.384 3.551-14.015 4.92-12.647 3.889-12.039 2.858-11.43 1.827-10.821-1.506-8.854-4.528-14.039-1.202-16.002-.171-16.611 .86-17.219 1.891-17.828 4.657-19.461 7.194-16.307 5.996-13.723 3.271-7.847-4.65-10.969-5.431-16.53-5.797-19.133-4.38-21.072-1.95-21.873-.131-22.472 1.613-22.997 3.43-23.622 4.827-24.102 5.691-24.062 6.973-23.327 8.125-22.667 8.699-21.212 8.352-19.939 7.966-18.809 7.756-17.644 7.723-16.446L5.628-18.541C5.819-18.471 6.01-18.401 6.201-18.331 5.43-18.23 4.66-18.129 3.889-18.028 6.538-19.496 7.644-21.242 10.976-21.558 13.831-21.828 16.697-21.02 19.464-20.413 23.059-19.624 21.749-14.913 18.667-14.52 15.051-14.059 11.915-11.774 8.526-10.552 4.901-9.245 1.087-8.63-2.703-8.019V-13.804C1.844-12.706 5.861-5.01 3.999-.746 3.009 1.52-1.12 1.018-1.485-1.462-1.744-3.227-1.745-4.683-1.454-6.438-1.016-9.075 2.822-9.228 4.03-7.155 5.369-4.855 5.967-2.668 6 0 6.048 3.862 .048 3.864 0 0" fill="#9f8a58"/>
<path transform="matrix(2,0,0,-2,48.3556,134.6066)" d="M0 0C2.067-.972 4.228-.556 5.814 1.105 6.535 1.861 6.915 2.722 7.302 3.671 7.356 3.804 7.808 4.748 7.468 4.097 7.548 4.251 8.101 5.032 7.651 4.508 8.672 5.698 8.907 7.597 7.651 8.75 6.529 9.78 4.5 10.022 3.409 8.75 2.554 7.754 2.085 6.711 1.609 5.496 1.76 5.883 1.699 5.682 1.563 5.422 1.291 4.899 1.43 5.363 1.571 5.348 1.361 5.152 1.346 5.125 1.525 5.265 1.709 5.394 1.683 5.384 1.447 5.234 2.007 5.481 2.401 5.476 3.028 5.181 1.611 5.848-.274 5.624-1.076 4.105-1.78 2.773-1.516 .713 0 0" fill="#9f8a58"/>
<path transform="matrix(2,0,0,-2,75.4452,157.3564)" d="M0 0C.713 .616 1.229 1.499 1.417 2.423 1.457 2.622 1.446 2.822 1.341 3.001 1.25 3.157 1.072 3.305 .893 3.346 .519 3.431 .054 3.233-.03 2.822-.078 2.581-.15 2.348-.244 2.121-.219 2.181-.193 2.241-.168 2.3-.294 2.002-.456 1.723-.652 1.465-.613 1.516-.574 1.566-.534 1.617-.691 1.414-.867 1.228-1.061 1.061-1.2 .941-1.28 .708-1.28 .53-1.28 .346-1.199 .127-1.061 0-.918-.131-.73-.229-.53-.22-.323-.21-.157-.136 0 0" fill="#9f8a58"/>
<path transform="matrix(2,0,0,-2,43.0682,133.798)" d="M0 0C1.97 .306 4.031-.438 5.414-1.853 5.375-1.55 5.336-1.247 5.297-.944 5.178-1.201 5.547-.753 5.524-.89 5.521-.909 5.276-.624 5.257-.597 5.016-.247 4.76 .094 4.465 .4 3.886 1 3.182 1.487 2.419 1.818 2.075 1.967 1.692 1.948 1.451 1.625 1.232 1.332 1.237 .905 1.51 .64 2.491-.313 3.472-1.265 4.453-2.218 4.744-2.5 5.225-2.507 5.514-2.218 5.829-1.903 5.764-1.477 5.514-1.157 4.452 .202 3.007 1.218 1.392 1.814 .673 2.08-.058 2.245-.821 2.078-1.569 1.914-2.22 1.332-2.177 .519-2.151 .029-1.719-.33-1.228-.205-.019 .105 1.264-.275 2.127-1.171L2.458 .083C2.059-.035 1.521 .157 1.378 .614 1.233 1.079 1.606 1.565 2.083 1.669 1.89 1.694 1.697 1.72 1.505 1.745 2.974 .616 4.29-.716 5.438-2.169 5.548-1.751 5.658-1.333 5.769-.915 5.539-.963 5.239-.723 5.229-.48 5.189 .482 3.688 .487 3.729-.48 3.782-1.733 4.947-2.617 6.167-2.362 6.777-2.234 6.818-1.513 6.498-1.108 5.742-.15 4.914 .75 4.016 1.578 3.567 1.991 3.101 2.386 2.62 2.763 2.287 3.024 2.032 3.212 1.587 3.095 1.302 3.019 1.041 2.881 .809 2.703-.069 2.03-.435 .77 .114-.226 .639-1.176 1.815-1.67 2.857-1.364 3.403-1.203 3.583-.52 3.188-.11 1.956 1.168 .089 1.681-1.626 1.242-1.31 1.001-.993 .76-.677 .519-.687 .713-.729 .397-.686 .559-.699 .509-.674 .556-.646 .567-.485 .629-.304 .657-.095 .653 .347 .644 .981 .397 1.457 .176 2.642-.376 3.65-1.19 4.453-2.218 4.807-1.864 5.16-1.511 5.514-1.157 4.533-.205 3.552 .748 2.57 1.701 2.268 1.308 1.965 .915 1.662 .523 2.581 .124 3.361-.483 3.932-1.31 4.236-1.751 4.566-2.176 5.109-2.321 5.662-2.469 6.342-2.24 6.592-1.701 6.735-1.391 6.724-1.047 6.475-.792 4.689 1.036 2.111 1.836-.399 1.446-.799 1.384-1.021 .882-.923 .524-.805 .096-.402-.062 0 0" fill="#9f8a58"/>
<path transform="matrix(2,0,0,-2,95.4502,49.2192)" d="M0 0C1.353 .372 2.706 .744 4.059 1.116 4.248 1.168 4.383 1.385 4.321 1.577 4.258 1.771 4.062 1.895 3.86 1.839 2.507 1.467 1.154 1.095-.199 .723-.388 .671-.524 .455-.461 .262-.399 .068-.203-.056 0 0" fill="#090a04"/>
<path transform="matrix(2,0,0,-2,95.0432,47.5924)" d="M0 0C-.472-.087-.732-.557-.728-1.007-.725-1.444-.502-1.924-.094-2.124 .507-2.418 1.175-2.263 1.741-1.961 2.243-1.692 2.702-1.308 3.097-.9 3.546-.438 3.931 .093 4.226 .666 4.316 .84 4.277 1.081 4.092 1.179 3.92 1.27 3.675 1.231 3.579 1.045 3.464 .823 3.337 .607 3.197 .4 3.133 .306 3.066 .213 2.997 .122 3.049 .191 2.986 .108 2.979 .099 2.959 .074 2.94 .05 2.92 .026 2.877-.026 2.833-.078 2.789-.129 2.628-.313 2.456-.488 2.275-.652 2.19-.729 2.103-.803 2.014-.875 1.99-.895 1.965-.914 1.941-.933 2.009-.879 1.927-.944 1.917-.951 1.859-.995 1.8-1.037 1.74-1.079 1.645-1.145 1.548-1.209 1.447-1.266 1.391-1.298 1.334-1.329 1.276-1.357 1.257-1.367 1.238-1.376 1.218-1.385 1.199-1.394 1.179-1.403 1.16-1.412 1.2-1.395 1.2-1.395 1.16-1.411 1.052-1.452 .942-1.489 .829-1.513 .801-1.519 .765-1.532 .737-1.531 .83-1.534 .735-1.53 .715-1.532 .644-1.538 .575-1.534 .504-1.533 .408-1.531 .557-1.546 .499-1.534 .474-1.529 .45-1.525 .425-1.519 .396-1.512 .366-1.504 .337-1.495 .323-1.491 .231-1.452 .312-1.489 .273-1.471 .237-1.449 .2-1.427 .151-1.398 .225-1.447 .229-1.451 .214-1.432 .189-1.417 .172-1.399 .158-1.386 .145-1.371 .132-1.357 .082-1.303 .183-1.433 .143-1.371 .124-1.341 .104-1.311 .087-1.279 .079-1.265 .073-1.25 .065-1.236 .031-1.169 .096-1.323 .072-1.252 .058-1.208 .043-1.165 .033-1.12 .029-1.101 .026-1.081 .022-1.062 .008-.989 .029-1.158 .026-1.084 .024-1.039 .021-.994 .023-.949 .024-.938 .033-.902 .028-.892 .018-.961 .016-.976 .023-.937 .025-.925 .027-.913 .03-.901 .036-.876 .067-.819 .062-.797 .072-.843 .02-.878 .054-.822 .065-.803 .078-.783 .089-.763 .12-.705 .023-.827 .073-.785 .085-.774 .098-.761 .109-.748 .153-.7 .028-.795 .087-.765 .095-.76 .145-.736 .147-.73 .136-.764 .054-.758 .125-.741 .15-.735 .174-.728 .199-.723 .393-.688 .52-.443 .461-.262 .394-.055 .207 .038 0 0" fill="#090a04"/>
<path transform="matrix(2,0,0,-2,96.471,47.4338)" d="M0 0C0-.262-.001-.524-.001-.786-.001-1.072 .318-1.252 .563-1.11 1.168-.761 1.773-.412 2.379-.063 2.46-.016 2.526 .071 2.551 .161 2.576 .251 2.564 .37 2.513 .45 2.402 .621 2.182 .689 2 .585 1.395 .236 .79-.113 .185-.462 .373-.57 .561-.678 .749-.786 .749-.524 .75-.262 .75 0 .75 .096 .708 .197 .64 .265 .575 .33 .468 .379 .375 .375 .172 .366 0 .21 0 0" fill="#090a04"/>
<path transform="matrix(2,0,0,-2,96.7722,50.739)" d="M0 0H1.021C1.117 0 1.218 .042 1.286 .11 1.323 .144 1.349 .184 1.364 .231 1.387 .275 1.398 .323 1.396 .375 1.392 .472 1.36 .573 1.286 .64 1.213 .708 1.123 .75 1.021 .75H0C-.096 .75-.197 .708-.265 .64-.302 .606-.328 .566-.343 .519-.366 .475-.377 .427-.375 .375-.371 .278-.339 .177-.265 .11-.192 .042-.102 0 0 0" fill="#090a04"/>
<path transform="matrix(2,0,0,-2,95.0008,48.456995)" d="M0 0V-.255C-.002-.307 .009-.355 .032-.4 .047-.446 .073-.487 .11-.52 .144-.557 .184-.583 .231-.598 .275-.621 .323-.632 .375-.63 .408-.626 .441-.621 .475-.617 .538-.599 .593-.567 .64-.52 .66-.495 .679-.47 .699-.445 .733-.386 .75-.323 .75-.255V0C.752 .052 .741 .1 .718 .144 .703 .191 .677 .231 .64 .265 .606 .302 .566 .328 .519 .343 .475 .366 .427 .377 .375 .375 .342 .371 .309 .366 .275 .362 .212 .344 .157 .312 .11 .265 .09 .24 .071 .215 .051 .189 .017 .131 0 .068 0 0" fill="#090a04"/>
<path transform="matrix(2,0,0,-2,96.2614,50.228395)" d="M0 0C.483 0 .483 .75 0 .75-.483 .75-.483 0 0 0" fill="#090a04"/>
<path transform="matrix(2,0,0,-2,82.4742,49.717599)" d="M0 0H.766C.818-.002 .866 .009 .91 .032 .957 .047 .997 .073 1.031 .11 1.068 .144 1.094 .184 1.109 .231 1.132 .275 1.143 .323 1.141 .375 1.136 .408 1.132 .441 1.128 .475 1.11 .538 1.078 .593 1.031 .64 .958 .708 .868 .75 .766 .75H0C-.052 .752-.1 .741-.144 .718-.191 .703-.231 .677-.265 .64-.302 .606-.328 .566-.343 .519-.366 .475-.377 .427-.375 .375-.371 .342-.366 .309-.362 .275-.344 .212-.312 .157-.265 .11-.192 .042-.102 0 0 0" fill="#090a04"/>
<path transform="matrix(2,0,0,-2,82.2378,48.883195)" d="M0 0C.069-.142 .16-.27 .261-.391 .362-.514 .481-.614 .607-.71 .709-.787 .818-.853 .934-.906 1.076-.971 1.222-1.027 1.375-1.059 1.546-1.095 1.724-1.114 1.9-1.102 2-1.095 2.092-1.065 2.165-.992 2.23-.927 2.279-.82 2.275-.727 2.27-.63 2.238-.53 2.165-.462 2.094-.397 1.998-.345 1.9-.352 1.796-.359 1.692-.356 1.588-.342 1.621-.347 1.655-.351 1.688-.355 1.542-.335 1.401-.296 1.266-.239 1.296-.252 1.325-.264 1.355-.277 1.22-.219 1.093-.144 .977-.055 1.002-.074 1.027-.094 1.053-.114 .943-.028 .844 .07 .759 .18 .778 .154 .798 .129 .817 .104 .752 .189 .695 .281 .648 .379 .609 .459 .507 .528 .423 .551 .334 .576 .214 .564 .135 .513 .054 .461-.016 .385-.038 .289-.061 .186-.046 .095 0 0" fill="#090a04"/>
<path transform="matrix(2,0,0,-2,95.0008,49.478395)" d="M0 0V-.255C-.002-.307 .009-.355 .032-.4 .047-.446 .073-.487 .11-.52 .144-.557 .184-.583 .231-.598 .275-.622 .323-.632 .375-.63 .408-.626 .441-.621 .475-.617 .538-.599 .593-.567 .64-.52 .66-.495 .679-.47 .699-.445 .733-.386 .75-.323 .75-.255V0C.752 .052 .741 .1 .718 .144 .703 .191 .677 .231 .64 .265 .606 .302 .566 .328 .519 .343 .475 .366 .427 .377 .375 .375 .342 .371 .309 .366 .275 .362 .212 .344 .157 .312 .11 .265 .09 .24 .071 .215 .051 .189 .017 .131 0 .068 0 0" fill="#090a04"/>
<path transform="matrix(2,0,0,-2,89.1126,67.0794)" d="M0 0C.483 0 .483 .75 0 .75-.483 .75-.483 0 0 0" fill="#090a04"/>
<path transform="matrix(2,0,0,-2,89.1126,67.59)" d="M0 0H1.277C1.373 0 1.474 .042 1.542 .11 1.607 .175 1.656 .282 1.652 .375 1.647 .472 1.615 .573 1.542 .64 1.468 .708 1.378 .75 1.277 .75H0C-.096 .75-.197 .708-.265 .64-.33 .575-.379 .468-.375 .375-.371 .278-.339 .177-.265 .11-.192 .042-.102 0 0 0" fill="#090a04"/>
<path transform="matrix(2,0,0,-2,101.2372,71.5748)" d="M0 0C.736 .494 1.403 1.091 1.964 1.778 2.134 1.986 2.296 2.201 2.448 2.422 2.501 2.499 2.51 2.624 2.486 2.711 2.462 2.798 2.395 2.892 2.314 2.935 2.123 3.036 1.92 2.974 1.801 2.801 1.711 2.671 1.618 2.543 1.522 2.418 1.542 2.443 1.561 2.469 1.581 2.494 1.126 1.906 .598 1.377 .01 .923 .035 .942 .06 .962 .086 .981-.066 .865-.22 .754-.379 .648-.46 .593-.524 .52-.551 .423-.576 .334-.564 .214-.513 .135-.409-.027-.174-.117 0 0" fill="#090a04"/>
<path transform="matrix(2,0,0,-2,70.4724,67.049198)" d="M0 0C.136-.618 .401-1.218 .771-1.732 .888-1.894 1.012-2.05 1.146-2.198 1.279-2.343 1.544-2.342 1.677-2.198 1.819-2.042 1.818-1.822 1.677-1.667 1.596-1.579 1.52-1.488 1.447-1.394 1.466-1.419 1.486-1.444 1.505-1.47 1.274-1.168 1.081-.838 .932-.488 .945-.518 .957-.548 .97-.578 .864-.327 .782-.067 .723 .199 .681 .391 .448 .521 .262 .461 .06 .396-.045 .206 0 0" fill="#090a04"/>
<path transform="matrix(2,0,0,-2,52.5414,48.837396)" d="M0 0C-.399 .062-.791-.069-1.055-.383-1.286-.658-1.441-1.023-1.405-1.389-1.367-1.772-1.154-2.104-.809-2.284-.511-2.439-.19-2.454 .134-2.39 .434-2.332 .719-2.199 .993-2.068 1.264-1.938 1.536-1.807 1.808-1.677 1.696-1.731 1.807-1.678 1.835-1.667 1.867-1.655 1.9-1.642 1.932-1.631 2.002-1.605 2.073-1.583 2.144-1.563 2.211-1.545 2.277-1.532 2.345-1.519 2.379-1.513 2.412-1.524 2.311-1.523 2.326-1.523 2.343-1.519 2.358-1.518 2.395-1.515 2.433-1.513 2.47-1.512 2.501-1.512 2.532-1.513 2.562-1.515 2.578-1.516 2.593-1.518 2.608-1.519 2.68-1.523 2.511-1.498 2.581-1.515 2.648-1.532 2.712-1.549 2.778-1.57 2.806-1.578 2.821-1.602 2.741-1.554 2.757-1.564 2.776-1.57 2.793-1.579 2.822-1.594 2.849-1.612 2.877-1.629 2.928-1.661 2.845-1.609 2.847-1.605 2.847-1.605 2.886-1.64 2.889-1.643 2.898-1.651 2.907-1.66 2.916-1.669 2.924-1.678 2.933-1.688 2.941-1.697 2.965-1.726 2.957-1.716 2.917-1.665 2.914-1.672 2.972-1.749 2.977-1.759 2.983-1.77 2.988-1.781 2.994-1.792 3.04-1.876 2.977-1.729 2.993-1.788 3.002-1.822 3.015-1.854 3.024-1.888 3.027-1.903 3.031-1.919 3.034-1.934 3.037-1.949 3.051-2.035 3.04-1.96 3.029-1.888 3.042-2.003 3.042-2.026 3.043-2.065 3.042-2.104 3.039-2.143 3.038-2.162 3.035-2.182 3.034-2.201 3.039-2.087 3.041-2.147 3.035-2.179 3.028-2.217 3.019-2.255 3.008-2.292 2.997-2.33 2.981-2.365 2.97-2.402 3.005-2.283 2.968-2.401 2.95-2.434 2.931-2.468 2.909-2.498 2.889-2.531 2.854-2.589 2.941-2.474 2.908-2.507 2.892-2.522 2.879-2.54 2.864-2.556 2.851-2.57 2.782-2.62 2.782-2.631 2.781-2.598 2.855-2.583 2.813-2.606 2.791-2.618 2.771-2.633 2.75-2.645 2.739-2.651 2.727-2.656 2.716-2.663 2.664-2.695 2.81-2.63 2.718-2.661 2.681-2.673 2.643-2.682 2.605-2.69 2.412-2.726 2.284-2.97 2.343-3.151 2.41-3.358 2.597-3.451 2.804-3.413 3.538-3.276 3.87-2.462 3.767-1.792 3.715-1.453 3.515-1.142 3.223-.96 2.956-.795 2.62-.738 2.311-.773 1.67-.846 1.112-1.188 .538-1.456 .506-1.471 .474-1.486 .443-1.5 .415-1.512 .301-1.557 .419-1.511 .351-1.538 .284-1.566 .215-1.59 .155-1.61 .094-1.629 .033-1.645 .004-1.653-.026-1.659-.056-1.665-.068-1.668-.08-1.67-.091-1.672-.103-1.674-.115-1.676-.127-1.678-.166-1.684-.15-1.682-.079-1.672-.132-1.665-.195-1.681-.25-1.679-.277-1.678-.306-1.671-.333-1.673-.235-1.668-.251-1.687-.283-1.679-.304-1.674-.326-1.67-.347-1.665-.374-1.658-.4-1.648-.427-1.64-.462-1.63-.437-1.612-.384-1.659-.395-1.649-.417-1.643-.43-1.636-.456-1.623-.481-1.608-.505-1.592-.515-1.586-.525-1.578-.535-1.572-.587-1.54-.46-1.638-.532-1.573-.559-1.548-.583-1.518-.61-1.494-.645-1.463-.558-1.573-.594-1.513-.605-1.496-.616-1.479-.626-1.462-.644-1.428-.643-1.387-.621-1.48-.626-1.461-.635-1.442-.641-1.424-.647-1.405-.652-1.386-.656-1.367-.663-1.331-.651-1.284-.655-1.389-.653-1.349-.66-1.309-.659-1.269-.658-1.252-.655-1.235-.656-1.219-.653-1.189-.655-1.205-.663-1.268-.661-1.255-.659-1.241-.656-1.228-.649-1.187-.639-1.148-.626-1.108-.622-1.095-.617-1.082-.613-1.069-.608-1.056-.603-1.043-.598-1.031-.621-1.085-.627-1.099-.615-1.073-.593-1.037-.578-.998-.556-.963-.547-.948-.538-.934-.528-.919-.491-.866-.508-.906-.537-.929-.507-.905-.483-.866-.455-.839-.44-.824-.425-.812-.41-.798-.36-.753-.482-.846-.422-.808-.388-.786-.355-.767-.32-.747-.269-.719-.349-.76-.355-.761-.331-.757-.305-.743-.281-.736-.268-.733-.255-.731-.242-.727-.18-.71-.345-.733-.243-.728-.207-.726-.072-.743-.199-.723-.006-.753 .213-.674 .262-.461 .303-.282 .207-.032 0 0" fill="#090a04"/>
<path transform="matrix(2,0,0,-2,54.4718,44.5916)" d="M0 0C.695-.339 1.391-.677 2.086-1.016 2.73-1.33 3.611-1.84 4.24-1.213 4.516-.939 4.646-.475 4.408-.135 4.296 .026 4.074 .116 3.895 0 3.735-.103 3.64-.341 3.76-.513 3.764-.519 3.796-.575 3.798-.575 3.799-.575 3.766-.502 3.78-.539 3.787-.554 3.792-.605 3.785-.545 3.778-.48 3.78-.56 3.782-.575 3.787-.612 3.783-.535 3.789-.532 3.784-.535 3.78-.571 3.778-.578 3.775-.589 3.769-.6 3.767-.612 3.758-.652 3.776-.575 3.781-.578 3.785-.58 3.741-.643 3.738-.652 3.726-.694 3.761-.621 3.76-.627 3.76-.633 3.74-.651 3.736-.656 3.728-.663 3.681-.721 3.673-.717 3.667-.715 3.738-.679 3.699-.698 3.688-.703 3.677-.712 3.667-.719 3.653-.728 3.638-.735 3.624-.744 3.608-.753 3.58-.754 3.623-.745 3.678-.734 3.6-.75 3.585-.754 3.57-.758 3.554-.761 3.539-.764 3.577-.756 3.567-.761 3.534-.762 3.499-.762 3.465-.762 3.43-.761 3.358-.759 3.409-.76 3.426-.763 3.409-.76 3.392-.757 3.374-.753 3.299-.738 3.225-.716 3.153-.69 3.136-.684 3.119-.678 3.102-.671 3.094-.668 3.025-.64 3.063-.656 3.098-.671 3.043-.647 3.042-.647 3.025-.639 3.009-.632 2.992-.624 2.92-.591 2.849-.556 2.777-.521 2.627-.448 2.476-.374 2.325-.301 2.018-.151 1.711-.002 1.404 .148 1.062 .315 .72 .481 .379 .648 .202 .733-.035 .701-.135 .513-.224 .345-.188 .092 0 0" fill="#090a04"/>
<path transform="matrix(2,0,0,-2,59.749,46.719797)" d="M0 0C-.003 .018-.005 .035-.008 .053-.001 .001 .001-.01-.003 .019-.007 .05-.011 .081-.014 .111-.02 .164-.026 .217-.03 .27-.041 .385-.048 .5-.053 .615-.062 .85-.059 1.086-.044 1.32-.037 1.435-.027 1.55-.013 1.665-.01 1.694-.01 1.729-.002 1.757-.004 1.741-.006 1.726-.009 1.71-.006 1.728-.004 1.745-.001 1.763 .007 1.82 .016 1.877 .026 1.934 .065 2.166 .117 2.395 .18 2.621 .233 2.81 .115 3.038-.082 3.083-.28 3.128-.487 3.023-.543 2.821-.817 1.836-.869 .811-.723-.199-.711-.286-.622-.382-.551-.423-.47-.471-.352-.49-.262-.461-.171-.432-.084-.376-.038-.289 .013-.194 .015-.106 0 0" fill="#090a04"/>
<path transform="matrix(2,0,0,-2,55.5176,44.553995)" d="M0 0C.084 .511 .169 1.022 .253 1.532 .268 1.582 .271 1.632 .259 1.682 .257 1.732 .242 1.778 .215 1.821 .169 1.899 .08 1.973-.009 1.994-.105 2.016-.213 2.011-.298 1.956-.375 1.906-.455 1.826-.47 1.732-.555 1.221-.639 .71-.723 .199-.739 .15-.741 .1-.73 .05-.728 0-.713-.047-.685-.09-.64-.167-.551-.242-.461-.262-.365-.284-.258-.279-.172-.224-.095-.174-.016-.094 0 0" fill="#090a04"/>
<path transform="matrix(2,0,0,-2,57.5532,34.36479)" d="M0 0 4.867-2.263C5.051-2.349 5.271-2.315 5.38-2.129 5.475-1.966 5.43-1.701 5.246-1.616 3.623-.861 2.001-.107 .379 .648 .195 .733-.026 .699-.135 .513-.229 .351-.184 .086 0 0" fill="#090a04"/>
<path transform="matrix(2,0,0,-2,61.4294,30.086792)" d="M0 0C-.095-.825-.151-1.799 .489-2.436 .769-2.714 1.141-2.892 1.535-2.921 1.967-2.951 2.356-2.731 2.599-2.383 2.724-2.206 2.799-1.987 2.841-1.775 2.885-1.552 2.903-1.324 2.913-1.097 2.922-.901 2.735-.713 2.538-.722 2.328-.732 2.173-.887 2.163-1.097 2.157-1.238 2.148-1.379 2.13-1.519 2.134-1.486 2.139-1.452 2.143-1.419 2.121-1.58 2.087-1.739 2.025-1.89 2.038-1.86 2.05-1.83 2.063-1.8 2.026-1.887 1.98-1.97 1.922-2.045 1.942-2.02 1.961-1.994 1.981-1.969 1.935-2.026 1.884-2.077 1.826-2.122 1.851-2.103 1.877-2.083 1.902-2.064 1.849-2.103 1.794-2.136 1.733-2.162 1.763-2.149 1.793-2.137 1.823-2.124 1.759-2.15 1.694-2.168 1.626-2.178 1.659-2.173 1.693-2.169 1.726-2.164 1.643-2.175 1.559-2.175 1.476-2.165 1.509-2.169 1.543-2.173 1.576-2.178 1.475-2.164 1.377-2.136 1.283-2.097 1.313-2.11 1.343-2.122 1.373-2.135 1.266-2.09 1.167-2.031 1.075-1.961 1.1-1.981 1.125-2 1.151-2.02 1.059-1.949 .976-1.867 .905-1.775 .924-1.8 .944-1.826 .964-1.851 .894-1.76 .84-1.661 .795-1.555 .808-1.585 .821-1.615 .833-1.645 .766-1.482 .724-1.312 .7-1.138 .704-1.171 .709-1.204 .713-1.237 .659-.826 .703-.41 .75 0 .76 .089 .701 .205 .64 .265 .575 .33 .468 .379 .375 .375 .278 .371 .177 .339 .11 .265 .038 .187 .012 .104 0 0" fill="#090a04"/>
<path transform="matrix(2,0,0,-2,65.5402,24.541794)" d="M0 0C.403-.392 .806-.784 1.209-1.176 1.323-1.288 1.438-1.399 1.553-1.511 1.622-1.578 1.72-1.62 1.818-1.62 1.91-1.62 2.02-1.58 2.083-1.511 2.149-1.439 2.197-1.345 2.193-1.245 2.188-1.147 2.155-1.051 2.083-.98 1.68-.588 1.277-.196 .874 .196 .76 .307 .645 .419 .53 .53 .461 .598 .363 .64 .265 .64 .173 .64 .063 .599 0 .53-.066 .459-.114 .365-.11 .265-.105 .166-.072 .07 0 0" fill="#090a04"/>
<path transform="matrix(2,0,0,-2,72.062,17.345002)" d="M0 0C.607 .409 1.214 .817 1.821 1.226 1.903 1.281 1.967 1.353 1.994 1.45 2.018 1.54 2.007 1.66 1.956 1.739 1.904 1.819 1.827 1.89 1.732 1.912 1.637 1.933 1.526 1.93 1.443 1.874 .836 1.465 .229 1.056-.379 .648-.46 .593-.524 .52-.551 .423-.576 .334-.564 .214-.513 .135-.461 .054-.385-.016-.289-.038-.194-.059-.083-.056 0 0" fill="#090a04"/>
<path transform="matrix(2,0,0,-2,72.2188,17.404999)" d="M0 0C.321-.671 .642-1.341 .962-2.012 1.001-2.092 1.039-2.172 1.077-2.252 1.093-2.285 1.109-2.319 1.124-2.353 1.131-2.368 1.142-2.387 1.147-2.404 1.12-2.315 1.146-2.403 1.153-2.42 1.18-2.49 1.205-2.561 1.224-2.634 1.233-2.67 1.241-2.706 1.248-2.742 1.258-2.792 1.263-2.744 1.246-2.723 1.255-2.735 1.25-2.777 1.251-2.79 1.252-2.826 1.249-2.86 1.247-2.896 1.245-2.947 1.265-2.824 1.249-2.873 1.244-2.89 1.241-2.907 1.236-2.924 1.232-2.937 1.216-2.993 1.233-2.941 1.249-2.891 1.23-2.944 1.223-2.957 1.217-2.968 1.209-2.979 1.204-2.99 1.185-3.028 1.266-2.916 1.227-2.958 1.171-3.018 1.29-2.926 1.243-2.95 1.226-2.958 1.202-2.969 1.187-2.981 1.253-2.929 1.266-2.953 1.232-2.961 1.219-2.964 1.207-2.969 1.194-2.972 1.183-2.975 1.172-2.976 1.162-2.979 1.121-2.992 1.264-2.974 1.205-2.974 1.178-2.973 1.151-2.975 1.124-2.975 1.037-2.974 1.202-2.995 1.136-2.976 1.114-2.969 1.091-2.963 1.069-2.957 1.014-2.942 1.123-2.975 1.116-2.977 1.109-2.978 1.084-2.958 1.078-2.956 1.03-2.935 1.162-3.024 1.094-2.966 1.082-2.956 1.059-2.924 1.101-2.979 1.144-3.034 1.117-2.999 1.109-2.983 1.163-3.086 1.14-3.064 1.132-3.036 1.121-3 1.13-2.971 1.135-3.083 1.132-3.002 1.11-3.18 1.133-3.093 1.182-2.903 1.07-2.677 .871-2.632 .675-2.587 .462-2.691 .409-2.894 .312-3.268 .558-3.605 .921-3.696 1.26-3.78 1.649-3.678 1.847-3.375 2.085-3.011 2.01-2.547 1.855-2.167 1.686-1.756 1.479-1.359 1.287-.958 1.074-.512 .861-.067 .648 .379 .563 .556 .295 .617 .135 .513-.048 .396-.091 .19 0 0" fill="#090a04"/>
<path transform="matrix(2,0,0,-2,78.6808,14.242996)" d="M0 0C.063-.997 .352-1.973 .85-2.839 .987-3.076 1.139-3.302 1.306-3.518 1.368-3.599 1.427-3.662 1.53-3.691 1.619-3.715 1.739-3.704 1.819-3.653 1.971-3.554 2.081-3.306 1.953-3.14 1.769-2.901 1.603-2.65 1.456-2.387 1.388-2.264 1.323-2.138 1.263-2.011 1.232-1.943 1.2-1.874 1.171-1.805 1.21-1.899 1.162-1.781 1.156-1.764 1.142-1.729 1.128-1.694 1.115-1.659 1.012-1.386 .929-1.106 .866-.821 .833-.674 .808-.526 .785-.377 .779-.335 .78-.34 .787-.393 .785-.374 .783-.356 .78-.337 .776-.3 .772-.262 .768-.225 .761-.15 .755-.075 .75 0 .738 .195 .586 .384 .375 .375 .182 .366-.013 .21 0 0" fill="#090a04"/>
<path transform="matrix(2,0,0,-2,85.8834,12.394196)" d="M0 0C.16-1.108 .32-2.216 .481-3.324 .493-3.41 .581-3.506 .653-3.548 .733-3.595 .852-3.615 .942-3.585 1.033-3.556 1.12-3.5 1.166-3.413 1.216-3.318 1.219-3.23 1.204-3.124 1.044-2.016 .883-.908 .723 .199 .711 .286 .622 .382 .551 .423 .471 .471 .352 .49 .262 .461 .171 .432 .084 .376 .038 .289-.013 .194-.015 .106 0 0" fill="#090a04"/>
<path transform="matrix(2,0,0,-2,86.3022,13.1813969)" d="M0 0C1.256-.837 2.407-1.77 3.495-2.828 3.678-3.006 4.079-2.954 4.122-2.663 4.366-1.028 4.433 .626 4.305 2.275 4.289 2.47 4.143 2.659 3.93 2.65 3.74 2.641 3.538 2.484 3.555 2.275 3.678 .699 3.629-.917 3.399-2.463L4.026-2.298C2.904-1.207 1.681-.22 .379 .648 .215 .757-.044 .685-.135 .513-.234 .324-.175 .116 0 0" fill="#090a04"/>
</g>
</g>
</svg>
